<svg version="1.1" xmlns="http://www.w3.org/2000/svg" xmlns:xlink="http://www.w3.org/1999/xlink" width="800" height="800" viewBox="0 0 800 800"><defs/><g/><g transform="scale(1,1)"><g transform="scale(1,1)"><rect fill="rgb(0,0,0)" stroke="none" x="0" y="0" width="800" height="800" fill-opacity="1"/></g><path fill="none" stroke="rgb(255,255,255)" paint-order="fill stroke markers" d=" M 400 400 L 646.2146829740202 578.8854381999831 L 458.12340224042896 578.8854381999835 L 458.12340224042873 221.1145618000172 L 646.2146829740204 221.11456180001667 L 399.9999999999986 400 L 153.78531702597996 221.11456180001704 L 341.8765977595714 221.11456180001764 L 341.8765977595715 578.8854381999821 L 153.7853170259799 578.8854381999831 L 400.00000000000284 400 L 646.2146829740204 578.8854381999831 L 458.1234022404294 578.8854381999847 L 458.1234022404277 221.11456180002028 L 646.2146829740196 221.11456180001713 L 400.00000000000034 400 L 153.78531702598036 221.11456180001744 L 341.87659775956973 221.11456180001286 L 341.8765977595708 578.8854381999843 L 153.78531702597957 578.8854381999835 L 400.0000000000056 400 L 646.214682974019 578.885438199982 L 458.1234022404288 578.8854381999826 L 458.12340224042606 221.1145618000251 L 646.2146829740212 221.11456180001593 L 399.9999999999975 400 L 153.78531702598184 221.1145618000186 L 341.8765977595704 221.11456180001503 L 341.8765977595702 578.8854381999865 L 153.78531702597803 578.8854381999847 L 399.9999999999994 400 L 646.2146829740219 578.885438199984 L 458.1234022404304 578.8854381999874 L 458.123402240429 221.11456180001588 L 646.2146829740227 221.11456180001474 L 400.00000000000375 400 L 153.78531702597888 221.1145618000165 L 341.8765977595688 221.11456180001022 L 341.8765977595718 578.8854381999816 L 153.78531702598107 578.8854381999826 L 400.0000000000113 400 L 646.2146829740159 578.8854381999796 L 458.123402240432 578.8854381999921 L 458.12340224042737 221.11456180002074 L 646.2146829740198 221.11456180001684 L 399.99999999999187 400 L 153.78531702598494 221.11456180002102 L 341.8765977595672 221.11456180000542 L 341.87659775957343 578.8854381999769 L 153.78531702597954 578.8854381999838 L 400.000000000005 400 L 646.2146829740228 578.8854381999859 L 458.1234022404336 578.885438199997 L 458.1234022404264 221.11456180002574 L 646.2146829740212 221.1145618000156 L 399.9999999999981 400 L 153.78531702597735 221.11456180001562 L 341.8765977595662 221.1145618000004 L 341.876597759575 578.8854381999721 L 153.7853170259774 578.885438199984 L 399.99999999999875 400 L 646.2146829740212 578.8854381999847 L 458.1234022404261 578.8854381999738 L 458.1234022404248 221.11456180003054 L 646.2146829740227 221.11456180001446 L 400.0000000000044 400 L 153.78531702597888 221.11456180001682 L 341.8765977595737 221.11456180002355 L 341.8765977595766 578.8854381999672 L 153.78531702597581 578.8854381999853 L 399.9999999999925 400 L 646.2146829740198 578.8854381999835 L 458.1234022404277 578.8854381999786 L 458.1234022404323 221.11456180000738 L 646.2146829740243 221.11456180001323 L 399.9999999999743 400 L 153.78531702598036 221.114561800018 L 341.87659775956297 221.11456179999075 L 341.87659775956917 578.8854381999904 L 153.78531702597434 578.8854381999865 L 400.00000000002257 400 L 646.2146829740183 578.8854381999822 L 458.12340224043845 578.8854382000114 L 458.12340224043066 221.11456180001218 L 646.2146829740258 221.114561800012 L 399.99999999998056 400 L 153.7853170259819 221.11456180001917 L 341.8765977595614 221.11456179998598 L 341.87659775957076 578.8854381999856 L 153.7853170259728 578.8854381999877 L 400.0000000000163 400 L 646.2146829740167 578.8854381999811 L 458.12340224044004 578.8854382000162 L 458.1234022404291 221.114561800017 L 646.2146829740274 221.11456180001082 L 399.9999999999868 400 L 153.7853170259835 221.11456180002043 L 341.876597759578 221.1145618000371 L 341.8765977595724 578.8854381999809 L 153.78531702597127 578.8854381999889 L 400.00000000001006 400 L 646.2146829740151 578.8854381999798 L 458.1234022404222 578.8854381999654 L 458.1234022404262 221.11456180002142 L 646.2146829740288 221.11456180000965 L 399.9999999999931 400 L 153.78531702598622 221.11456180001983 L 341.8765977595751 221.11456180003273 L 341.876597759574 578.885438199976 L 153.78531702596976 578.8854381999902 L 400.00000000000375 400 L 646.214682974015 578.885438199977 L 458.1234022404251 578.8854381999699 L 458.12340224042583 221.1145618000266 L 646.2146829740317 221.1145618000102 L 399.9999999999994 400 L 153.7853170259865 221.11456180002284 L 341.87659775957474 221.1145618000275 L 341.87659775957434 578.8854381999708 L 153.78531702598767 578.8854381999798 L 399.9999999999975 400 L 646.2146829740121 578.8854381999774 L 458.12340224042543 578.8854381999752 L 458.123402240423 221.114561800031 L 646.2146829740137 221.11456180002045 L 400.0000000000056 400 L 153.7853170259893 221.11456180002224 L 341.87659775957184 221.11456180002313 L 341.8765977595772 578.8854381999663 L 153.78531702598488 578.8854381999793 L 399.99999999999125 400 L 646.2146829740118 578.8854381999745 L 458.12340224042833 578.8854381999795 L 458.12340224042265 221.11456180003623 L 646.2146829740165 221.11456180002102 L 400.00000000001194 400 L 153.78531702598957 221.1145618000252 L 341.8765977595715 221.11456180001787 L 341.8765977595776 578.8854381999611 L 153.78531702598463 578.8854381999822 L 399.99999999998494 400 L 646.2146829740091 578.885438199975 L 458.1234022404287 578.8854381999847 L 458.12340224041975 221.11456180004063 L 646.2146829740168 221.11456180001804 L 400.0000000000182 400 L 153.78531702597414 221.11456180001142 L 341.87659775956865 221.1145618000135 L 341.8765977595804 578.8854381999568 L 153.78531702596368 578.885438199995 L 400.00000000005144 400 L 646.214682974027 578.8854381999854 L 458.1234022404315 578.8854381999892 L 458.1234022404194 221.1145618000459 L 646.2146829740377 221.1145618000054 L 399.9999999999517 400 L 153.7853170259744 221.11456180001437 L 341.8765977595683 221.11456180000826 L 341.87659775958076 578.8854381999515 L 153.7853170259634 578.8854381999979 L 400.0000000000452 400 L 646.2146829740243 578.8854381999859 L 458.1234022404319 578.8854381999944 L 458.1234022404165 221.11456180005024 L 646.2146829740379 221.11456180000243 L 399.999999999958 400 L 153.7853170259772 221.11456180001386 L 341.8765977595654 221.11456180000386 L 341.87659775958366 578.8854381999472 L 153.78531702596058 578.8854381999972 L 400.0000000000389 400 L 646.214682974024 578.8854381999829 L 458.12340224043476 578.8854381999987 L 458.12340224041617 221.11456180005547 L 646.2146829740408 221.11456180000303 L 399.99999999996425 400 L 153.78531702597746 221.11456180001682 L 341.8765977595651 221.11456179999863 L 341.876597759584 578.8854381999419 L 153.78531702596032 578.8854382000003 L 400.0000000000326 400 L 646.2146829740211 578.8854381999836 L 458.1234022404351 578.885438200004 L 458.12340224041327 221.11456180005985 L 646.2146829740411 221.11456180000002 L 399.9999999999705 400 L 153.78531702598028 221.11456180001628 L 341.8765977595622 221.11456179999425 L 341.87659775958684 578.8854381999375 L 153.78531702599392 578.8854381999732 L 400.0000000000264 400 L 646.2146829740209 578.8854381999805 L 458.123402240438 578.8854382000084 L 458.12340224041293 221.1145618000651 L 646.2146829740075 221.11456180002702 L 399.9999999999768 400 L 153.7853170259805 221.1145618000192 L 341.87659775956183 221.11456179998902 L 341.8765977595872 578.8854381999323 L 153.7853170259937 578.8854381999762 L 400.00000000002007 400 L 646.2146829740182 578.8854381999811 L 458.12340224043834 578.8854382000136 L 458.1234022404101 221.1145618000695 L 646.2146829740102 221.11456180002756 L 399.99999999998306 400 L 153.78531702598076 221.11456180002216 L 341.87659775955893 221.1145617999846 L 341.8765977595901 578.8854381999279 L 153.78531702599088 578.8854381999756 L 400.0000000000138 400 L 646.2146829740153 578.8854381999816 L 458.1234022404387 578.8854382000188 L 458.1234022404072 221.11456180007391 L 646.2146829740079 221.1145618000211 L 399.9999999999893 400 L 153.78531702598355 221.1145618000216 L 341.8765977595586 221.1145617999794 L 341.8765977595904 578.8854381999226 L 153.7853170259881 578.885438199975 L 400.00000000000756 400 L 646.2146829740176 578.8854381999752 L 458.1234022404441 578.8854382000223 L 458.12340224040685 221.11456180007917 L 646.2146829740108 221.11456180002168 L 399.9999999999956 400 L 153.78531702598633 221.11456180002105 L 341.87659775955825 221.11456179997415 L 341.87659775959077 578.8854381999174 L 153.78531702599037 578.8854381999815 L 400.00000000000125 400 L 646.2146829740147 578.8854381999757 L 458.1234022404444 578.8854382000277 L 458.1234022404065 221.11456180008435 L 646.2146829740136 221.11456180002222 L 400.0000000000019 400 L 153.78531702598914 221.11456180002048 L 341.87659775955285 221.1145617999706 L 341.87659775955984 578.8854382000259 L 153.7853170259876 578.885438199981 L 399.999999999995 400 L 646.214682974012 578.8854381999763 L 458.12340224044476 578.8854382000328 L 458.12340224044254 221.1145617999776 L 646.2146829740163 221.11456180002278 L 400.00000000000813 400 L 153.78531702598684 221.11456180002693 L 341.8765977595525 221.11456179996537 L 341.8765977595602 578.8854382000206 L 153.78531702598482 578.8854381999804 L 399.99999999998875 400 L 646.2146829740093 578.8854381999769 L 458.1234022404451 578.885438200038 L 458.12340224043714 221.11456179998117 L 646.2146829740141 221.11456180001633 L 400.00000000001444 400 L 153.78531702598966 221.11456180002642 L 341.87659775955217 221.11456179996014 L 341.8765977595605 578.8854382000154 L 153.785317025982 578.8854381999798 L 399.99999999998244 400 L 646.2146829740063 578.8854381999774 L 458.12340224045056 578.8854382000417 L 458.1234022404368 221.1145617999864 L 646.2146829740169 221.11456180001684 L 400.0000000000207 400 L 153.7853170259924 221.11456180002583 L 341.8765977595518 221.1145617999549 L 341.87659775956087 578.8854382000102 L 153.78531702597917 578.8854381999794 L 399.9999999999762 400 L 646.2146829740087 578.885438199971 L 458.1234022404509 578.8854382000469 L 458.12340224043646 221.11456179999166 L 646.2146829740196 221.11456180001744 L 400.00000000002694 400 L 153.78531702599525 221.1145618000253 L 341.8765977595515 221.11456179994968 L 341.87659775956627 578.8854382000065 L 153.78531702598153 578.8854381999859 L 399.99999999996993 400 L 646.2146829740059 578.8854381999715 L 458.12340224045124 578.885438200052 L 458.1234022404361 221.11456179999686 L 646.2146829740225 221.11456180001795 L 400.00000000003325 400 L 153.78531702599292 221.1145618000317 L 341.87659775954603 221.1145617999461 L 341.8765977595666 578.8854382000013 L 153.78531702597869 578.8854381999853 L 399.9999999999636 400 L 646.2146829740032 578.885438199972 L 458.1234022404152 578.8854381999454 L 458.1234022404358 221.1145618000021 L 646.2146829740201 221.11456180001156 L 400.0000000000395 400 L 153.78531702599577 221.1145618000312 L 341.8765977595821 221.11456180005285 L 341.8765977596033 578.8854381998842 L 153.7853170259759 578.8854381999847 L 400.0000000001029 400 L 646.2146829740003 578.8854381999726 L 458.1234022404206 578.8854381999489 L 458.12340224039394 221.11456180011763 L 646.2146829740229 221.11456180001207 L 399.99999999990024 400 L 153.78531702599852 221.11456180003063 L 341.8765977595818 221.11456180004765 L 341.87659775960367 578.885438199879 L 153.7853170259731 578.8854381999842 L 400.00000000009663 400 L 646.2146829740026 578.8854381999661 L 458.12340224042094 578.8854381999541 L 458.1234022403936 221.11456180012286 L 646.2146829740258 221.11456180001264 L 399.99999999990655 400 L 153.78531702600134 221.1145618000301 L 341.87659775958144 221.11456180004242 L 341.8765977596091 578.8854381998754 L 153.7853170259754 578.8854381999906 L 400.0000000000903 400 L 646.2146829739999 578.8854381999666 L 458.1234022404213 578.8854381999594 L 458.12340224039326 221.11456180012806 L 646.2146829740285 221.11456180001318 L 399.9999999999128 400 L 153.78531702599903 221.11456180003654 L 341.876597759576 221.11456180003884 L 341.87659775960947 578.8854381998701 L 153.7853170259726 578.8854381999901 L 400.00000000008407 400 L 646.214682973997 578.8854381999672 L 458.1234022404216 578.8854381999646 L 458.1234022403929 221.11456180013326 L 646.2146829740262 221.11456180000675 L 399.99999999991905 400 L 153.78531702600185 221.11456180003597 L 341.87659775957565 221.11456180003364 L 341.8765977596098 578.8854381998649 L 153.78531702596982 578.8854381999895 L 400.0000000000778 400 L 646.2146829739943 578.8854381999678 L 458.123402240427 578.8854381999681 L 458.1234022403875 221.11456180013684 L 646.2146829740291 221.1145618000073 L 399.99999999992536 400 L 153.78531702600466 221.11456180003546 L 341.8765977595753 221.11456180002838 L 341.87659775961015 578.8854381998597 L 153.78531702596703 578.8854381999889 L 400.0000000000715 400 L 646.2146829739966 578.8854381999613 L 458.12340224042737 578.8854381999734 L 458.1234022403872 221.1145618001421 L 646.2146829740319 221.1145618000078 L 399.9999999999316 400 L 153.7853170260074 221.11456180003486 L 341.87659775957496 221.11456180002315 L 341.87659775961555 578.8854381998561 L 153.78531702596933 578.8854381999954 L 400.00000000006526 400" stroke-opacity="1" stroke-linecap="round" stroke-miterlimit="10"/></g></svg>