<svg version="1.1" xmlns="http://www.w3.org/2000/svg" xmlns:xlink="http://www.w3.org/1999/xlink" width="800" height="800" viewBox="0 0 800 800"><defs/><g/><g transform="scale(1,1)"><g transform="scale(1,1)"><rect fill="rgb(0,0,0)" stroke="none" x="0" y="0" width="800" height="800" fill-opacity="1"/></g><path fill="none" stroke="rgb(255,255,255)" paint-order="fill stroke markers" d=" M 400 400 L 351.8772053822607 127.0820697752182 L 139.58474196820032 494.78340247232774 L 400.00000000000006 400.0000000000001 L 187.70753658594003 578.134527752454 L 612.2924634140603 578.1345277524541 L 400.00000000000017 399.9999999999997 L 660.4152580317998 494.7834024723275 L 448.1227946177392 127.08206977521758 L 399.99999999999955 400 L 351.87720538226057 127.08206977521803 L 139.5847419681998 494.7834024723279 L 400.00000000000034 400.00000000000057 L 187.70753658593964 578.1345277524542 L 612.2924634140602 578.1345277524536 L 400.0000000000004 399.9999999999993 L 660.4152580317987 494.7834024723269 L 448.12279461773943 127.08206977521854 L 399.99999999999903 400 L 351.8772053822612 127.0820697752194 L 139.58474196820072 494.78340247232774 L 400.00000000000057 400.00000000000097 L 187.7075365859408 578.1345277524534 L 612.2924634140605 578.1345277524537 L 400.0000000000006 399.9999999999989 L 660.4152580317981 494.7834024723276 L 448.1227946177393 127.08206977521826 L 399.9999999999986 400 L 351.8772053822597 127.08206977521758 L 139.5847419682002 494.783402472327 L 400.0000000000008 400.00000000000136 L 187.70753658594109 578.1345277524533 L 612.2924634140626 578.1345277524551 L 399.9999999999986 400.00000000000244 L 660.4152580318 494.7834024723282 L 448.12279461773926 127.08206977521803 L 399.9999999999981 400 L 351.87720538226006 127.08206977522002 L 139.58474196819787 494.783402472328 L 399.99999999999875 399.99999999999784 L 187.7075365859396 578.1345277524548 L 612.2924634140611 578.1345277524538 L 400.0000000000011 399.9999999999981 L 660.4152580317977 494.78340247232717 L 448.12279461773954 127.08206977521553 L 400.0000000000022 400 L 351.87720538225955 127.08206977521809 L 139.5847419682005 494.78340247232927 L 400.00000000000125 400.00000000000216 L 187.70753658594035 578.1345277524517 L 612.2924634140618 578.1345277524567 L 399.99999999999903 400.00000000000165 L 660.4152580317997 494.7834024723278 L 448.12279461773903 127.08206977521746 L 399.99999999999716 400 L 351.87720538225983 127.08206977522053 L 139.58474196820248 494.7834024723287 L 399.9999999999992 399.99999999999864 L 187.70753658593887 578.1345277524532 L 612.2924634140603 578.1345277524554 L 400.0000000000016 399.99999999999727 L 660.4152580317973 494.78340247232677 L 448.1227946177394 127.08206977521496 L 400.00000000000125 400 L 351.8772053822602 127.08206977522303 L 139.58474196820015 494.7834024723297 L 399.99999999999716 399.9999999999951 L 187.7075365859409 578.1345277524516 L 612.2924634140588 578.134527752454 L 400.0000000000041 399.99999999999295 L 660.4152580317993 494.78340247232734 L 448.12279461773807 127.08206977522144 L 399.99999999999625 400 L 351.87720538225886 127.08206977521661 L 139.58474196819787 494.7834024723307 L 399.99999999999966 399.99999999999943 L 187.7075365859429 578.1345277524501 L 612.2924634140609 578.1345277524555 L 399.9999999999975 400.0000000000043 L 660.4152580317971 494.7834024723264 L 448.12279461773835 127.08206977521894 L 399.99999999999125 400 L 351.87720538225915 127.08206977521905 L 139.58474196820413 494.78340247232853 L 400.0000000000022 400.0000000000038 L 187.70753658593793 578.1345277524545 L 612.2924634140629 578.134527752457 L 400 400 L 660.4152580317948 494.7834024723254 L 448.1227946177387 127.0820697752165 L 400.0000000000044 400 L 351.8772053822595 127.08206977522161 L 139.58474196820174 494.78340247232956 L 400.0000000000047 400.00000000000813 L 187.70753658594248 578.134527752456 L 612.2924634140604 578.1345277524497 L 400.0000000000025 399.9999999999957 L 660.4152580318023 494.7834024723238 L 448.12279461774284 127.08206977521468 L 399.9999999999994 400 L 351.87720538226364 127.08206977522332 L 139.58474196819816 494.7834024723268 L 399.9999999999981 399.99999999999676 L 187.70753658594197 578.1345277524515 L 612.29246341406 578.1345277524541 L 400.000000000005 399.9999999999913 L 660.4152580317987 494.78340247232654 L 448.12279461773767 127.08206977522048 L 399.9999999999944 400 L 351.87720538225847 127.08206977521758 L 139.58474196819714 494.78340247233155 L 400.0000000000006 400.0000000000011 L 187.70753658593952 578.1345277524588 L 612.2924634140645 578.1345277524526 L 399.9999999999984 400.00000000000273 L 660.415258031795 494.78340247232927 L 448.1227946177419 127.08206977521866 L 399.9999999999893 400 L 351.8772053822627 127.0820697752194 L 139.58474196820202 494.7834024723257 L 400.0000000000031 400.00000000000546 L 187.70753658593898 578.1345277524543 L 612.292463414064 578.1345277524572 L 400.00000000001006 399.9999999999826 L 660.4152580317941 494.78340247232455 L 448.1227946177383 127.08206977521542 L 400.0000000000025 400 L 351.8772053822575 127.08206977521365 L 139.58474196819253 494.7834024723335 L 400.0000000000056 400.0000000000098 L 187.7075365859435 578.1345277524558 L 612.2924634140616 578.1345277524498 L 399.9999999999944 400.0000000000098 L 660.4152580317904 494.7834024723273 L 448.1227946177425 127.08206977521365 L 399.9999999999975 400 L 351.8772053822617 127.08206977521542 L 139.58474196820595 494.78340247232455 L 400.00000000000813 400.0000000000141 L 187.70753658594305 578.1345277524513 L 612.292463414061 578.1345277524543 L 399.9999999999969 400.00000000000546 L 660.4152580318065 494.7834024723288 L 448.1227946177389 127.08206977521047 L 399.9999999999925 400 L 351.8772053822581 127.08206977521866 L 139.58474196820504 494.7834024723292 L 400.0000000000107 400.0000000000185 L 187.70753658594757 578.1345277524529 L 612.2924634140655 578.1345277524529 L 399.9999999999994 400.0000000000011 L 660.4152580318029 494.78340247233155 L 448.12279461774307 127.08206977520865 L 399.99999999998744 400 L 351.87720538226233 127.08206977522048 L 139.58474196820134 494.78340247232654 L 399.999999999995 399.9999999999913 L 187.70753658594705 578.1345277524483 L 612.292463414065 578.1345277524574 L 400.0000000000019 399.99999999999676 L 660.4152580318018 494.7834024723268 L 448.12279461773636 127.08206977522332 L 399.99999999998244 400 L 351.87720538225875 127.08206977522366 L 139.58474196820038 494.7834024723312 L 399.9999999999975 399.9999999999957 L 187.70753658593765 578.1345277524615 L 612.2924634140695 578.1345277524558 L 400.0000000000044 399.9999999999924 L 660.4152580317982 494.78340247232956 L 448.1227946177405 127.08206977522161 L 400.0000000000138 400 L 351.8772053822629 127.08206977522548 L 139.58474196819674 494.7834024723285 L 400 400 L 187.70753658593713 578.134527752457 L 612.2924634140691 578.1345277524604 L 400.0000000000069 399.99999999998806 L 660.4152580317973 494.78340247232484 L 448.122794617737 127.08206977521837 L 400.0000000000088 400 L 351.8772053822593 127.0820697752286 L 139.58474196819577 494.78340247233314 L 400.0000000000025 400.0000000000043 L 187.70753658594163 578.1345277524584 L 612.2924634140545 578.1345277524532 L 400.0000000000094 399.9999999999837 L 660.4152580317937 494.78340247232757 L 448.12279461773335 127.08206977521525 L 400.00000000000375 400 L 351.8772053822526 127.08206977521388 L 139.58474196819208 494.78340247233047 L 400.000000000005 400.0000000000087 L 187.70753658594117 578.134527752454 L 612.2924634140642 578.1345277524456 L 399.99999999999375 400.00000000001086 L 660.4152580317899 494.7834024723303 L 448.12279461773755 127.08206977521337 L 399.99999999999875 400 L 351.87720538225676 127.08206977521564 L 139.58474196818844 494.78340247232774 L 400.0000000000075 400.000000000013 L 187.7075365859406 578.1345277524495 L 612.2924634140636 578.1345277524501 L 399.99999999999625 400.00000000000654 L 660.4152580317916 494.7834024723182 L 448.12279461774176 127.08206977521161 L 399.99999999999375 400 L 351.87720538226097 127.08206977521746 L 139.5847419682073 494.7834024723336 L 400.00000000001006 400.0000000000174 L 187.70753658595024 578.134527752457 L 612.2924634140631 578.1345277524547 L 399.99999999999875 400.00000000000216 L 660.4152580318051 494.7834024723271 L 448.1227946177459 127.08206977520979 L 399.9999999999887 400 L 351.8772053822651 127.08206977521928 L 139.58474196820362 494.78340247233086 L 399.9999999999944 399.9999999999902 L 187.7075365859497 578.1345277524524 L 612.2924634140627 578.1345277524592 L 400.00000000000125 399.99999999999784 L 660.4152580318015 494.78340247232984 L 448.1227946177314 127.08206977522315 L 399.9999999999837 400 L 351.8772053822538 127.08206977522389 L 139.58474196819992 494.7834024723282 L 399.9999999999969 399.99999999999454 L 187.70753658594916 578.1345277524479 L 612.2924634140621 578.1345277524638 L 400.00000000000375 399.99999999999346 L 660.4152580317977 494.78340247233257 L 448.1227946177356 127.08206977522133 L 399.9999999999787 400 L 351.87720538225796 127.08206977522565 L 139.58474196819628 494.78340247232546 L 399.9999999999994 399.9999999999989 L 187.70753658593472 578.1345277524551 L 612.2924634140717 578.1345277524562 L 400.00000000000625 399.99999999998914 L 660.4152580317996 494.78340247232046 L 448.12279461773977 127.08206977521957 L 400.00000000001006 400 L 351.87720538226216 127.08206977522747 L 139.584741968198 494.78340247233757 L 400.00000000002007 400.0000000000348 L 187.70753658594433 578.1345277524626 L 612.2924634140712 578.1345277524608 L 399.99999999999056 400.0000000000163 L 660.4152580317959 494.7834024723232 L 448.1227946177471 127.08206977519978 L 400.000000000005 400 L 351.8772053822663 127.08206977522929 L 139.58474196821146 494.7834024723286 L 400.0000000000044 400.0000000000076 L 187.7075365859577 578.1345277524464 L 612.2924634140567 578.1345277524536 L 400.0000000000113 399.99999999998045 L 660.4152580318093 494.7834024723321 L 448.1227946177326 127.0820697752132 L 399.9999999999636 400 L 351.8772053822519 127.08206977521598 L 139.5847419681907 494.7834024723321 L 399.9999999999887 399.99999999998045 L 187.7075365859433 578.1345277524536 L 612.2924634140702 578.1345277524698 L 399.9999999999956 400.0000000000076 L 660.4152580317885 494.7834024723286 L 448.1227946177337 127.08206977522929 L 399.999999999995 400 L 351.8772053822592 127.0820697752356 L 139.58474196820413 494.7834024723232 L 400.0000000000094 400.0000000000163 L 187.70753658592878 578.1345277524608 L 612.2924634140658 578.1345277524506 L 400.0000000000163 399.99999999997175 L 660.4152580318073 494.7834024723228 L 448.122794617741 127.08206977520956 L 400.0000000000264 400 L 351.87720538226023 127.08206977521957 L 139.58474196818878 494.7834024723415 L 399.99999999999375 399.99999999998914 L 187.70753658594225 578.1345277524445 L 612.2924634140513 578.1345277524434 L 400.0000000000006 399.9999999999989 L 660.4152580317866 494.78340247231927 L 448.12279461774204 127.08206977522565 L 399.99999999998494 400 L 351.87720538226125 127.08206977520337 L 139.58474196820225 494.78340247233257 L 400.00000000001444 400.000000000025 L 187.7075365859379 578.1345277524638 L 612.2924634140647 578.1345277524596 L 400.0000000000213 399.99999999996305 L 660.4152580318 494.7834024723282 L 448.12279461773386 127.08206977520325 L 400.0000000000163 400 L 351.87720538225307 127.08206977522593 L 139.58474196818145 494.7834024723361 L 399.99999999999875 399.99999999999784 L 187.70753658595132 578.1345277524475 L 612.2924634140503 578.1345277524524 L 400.0000000000056 399.9999999999902 L 660.4152580317793 494.78340247232467 L 448.1227946177349 127.08206977521934 L 399.99999999997493 400 L 351.8772053822541 127.08206977520979 L 139.58474196819486 494.7834024723271 L 400.00000000001944 400.00000000003365 L 187.70753658593685 578.1345277524547 L 612.2924634140738 578.1345277524566 L 399.99999999998994 400.0000000000174 L 660.4152580317981 494.7834024723188 L 448.1227946177422 127.08206977519956 L 400.00000000000625 400 L 351.8772053822614 127.08206977522951 L 139.58474196821373 494.783402472333 L 400.00000000000375 400.00000000000654 L 187.7075365859503 578.1345277524384 L 612.2924634140593 578.1345277524495 L 400.0000000000107 399.9999999999815 L 660.4152580318116 494.78340247232774 L 448.12279461774324 127.08206977521564 L 399.99999999996487 400 L 351.87720538226245 127.08206977521337 L 139.584741968193 494.7834024723365 L 399.99999999998806 399.99999999997937 L 187.70753658594597 578.1345277524578 L 612.2924634140728 578.1345277524656 L 399.999999999995 400.0000000000087 L 660.4152580317908 494.78340247232427 L 448.12279461772874 127.08206977522906 L 399.99999999999625 400 L 351.87720538225426 127.08206977523594 L 139.58474196820646 494.78340247232757 L 400.00000000000875 400.0000000000152 L 187.70753658593148 578.1345277524649 L 612.2924634140584 578.1345277524586 L 400.0000000000157 399.99999999997283 L 660.4152580318042 494.7834024723332 L 448.1227946177361 127.08206977520933 L 400.0000000000276 400 L 351.8772053822553 127.08206977521974 L 139.58474196818565 494.7834024723311 L 399.9999999999931 399.99999999998806 L 187.7075365859449 578.1345277524487 L 612.2924634140818 578.1345277524626 L 400 400 L 660.4152580317889 494.78340247231483 L 448.1227946177371 127.08206977522548 L 399.9999999999862 400 L 351.8772053822626 127.08206977523952 L 139.58474196820447 494.78340247233695 L 400.0000000000138 400.0000000000239 L 187.70753658593043 578.1345277524558 L 612.2924634140675 578.1345277524555 L 400.0000000000207 399.99999999996413 L 660.4152580318023 494.7834024723238 L 448.12279461774443 127.0820697752057 L 400.00000000001756 400" stroke-opacity="1" stroke-linecap="round" stroke-miterlimit="10"/></g></svg>