<svg version="1.1" xmlns="http://www.w3.org/2000/svg" xmlns:xlink="http://www.w3.org/1999/xlink" width="800" height="800" viewBox="0 0 800 800"><defs/><g/><g transform="scale(1,1)"><g transform="scale(1,1)"><rect fill="rgb(0,0,0)" stroke="none" x="0" y="0" width="800" height="800" fill-opacity="1"/></g><path fill="none" stroke="rgb(255,255,255)" paint-order="fill stroke markers" d=" M 400 400 L 458.1234022404289 578.8854381999832 L 646.2146829740202 221.1145618000168 L 153.78531702597974 221.11456180001687 L 341.8765977595712 578.8854381999831 L 399.99999999999983 400 L 458.12340224042896 578.8854381999834 L 646.2146829740202 221.1145618000167 L 153.78531702597974 221.114561800017 L 341.87659775957127 578.885438199983 L 399.99999999999966 400 L 458.1234022404291 578.8854381999835 L 646.2146829740203 221.11456180001662 L 153.78531702597968 221.11456180001704 L 341.8765977595714 578.8854381999829 L 399.99999999999955 400 L 458.12340224042913 578.8854381999835 L 646.2146829740202 221.11456180001653 L 153.78531702597974 221.11456180001716 L 341.87659775957144 578.8854381999828 L 399.9999999999994 400 L 458.1234022404292 578.8854381999836 L 646.2146829740202 221.11456180001645 L 153.78531702597968 221.1145618000172 L 341.87659775957155 578.8854381999827 L 399.9999999999992 400 L 458.1234022404293 578.8854381999837 L 646.2146829740202 221.11456180001633 L 153.7853170259797 221.11456180001733 L 341.8765977595716 578.8854381999826 L 399.99999999999903 400 L 458.1234022404294 578.8854381999838 L 646.2146829740202 221.11456180001628 L 153.7853170259797 221.1145618000174 L 341.87659775957167 578.8854381999824 L 399.9999999999989 400 L 458.12340224042947 578.8854381999839 L 646.2146829740202 221.11456180001616 L 153.78531702597968 221.11456180001753 L 341.8765977595718 578.8854381999823 L 399.99999999999875 400 L 458.1234022404295 578.885438199984 L 646.2146829740202 221.11456180001608 L 153.7853170259797 221.11456180001758 L 341.87659775957184 578.8854381999822 L 399.9999999999986 400 L 458.12340224042964 578.8854381999842 L 646.2146829740202 221.11456180001596 L 153.7853170259797 221.1145618000177 L 341.87659775957195 578.8854381999821 L 399.9999999999984 400 L 458.1234022404273 578.8854381999812 L 646.2146829740202 221.1145618000159 L 153.78531702597982 221.1145618000152 L 341.876597759572 578.885438199982 L 400.00000000000284 400 L 458.1234022404298 578.8854381999844 L 646.2146829740203 221.11456180001844 L 153.78531702597965 221.11456180001784 L 341.8765977595697 578.885438199985 L 399.9999999999981 400 L 458.1234022404275 578.8854381999814 L 646.2146829740202 221.11456180001574 L 153.7853170259798 221.11456180001537 L 341.8765977595722 578.8854381999818 L 400.0000000000025 400 L 458.12340224043 578.8854381999846 L 646.2146829740203 221.11456180001824 L 153.78531702597968 221.114561800018 L 341.8765977595699 578.8854381999847 L 399.9999999999978 400 L 458.12340224042765 578.8854381999815 L 646.2146829740202 221.11456180001554 L 153.7853170259798 221.11456180001554 L 341.87659775957235 578.8854381999815 L 400.0000000000022 400 L 458.1234022404301 578.8854381999847 L 646.2146829740203 221.114561800018 L 153.78531702597968 221.11456180001824 L 341.87659775957 578.8854381999846 L 399.9999999999975 400 L 458.1234022404278 578.8854381999818 L 646.2146829740202 221.11456180001537 L 153.7853170259798 221.11456180001574 L 341.8765977595725 578.8854381999814 L 400.0000000000019 400 L 458.1234022404303 578.885438199985 L 646.2146829740203 221.11456180001784 L 153.78531702597965 221.11456180001844 L 341.8765977595702 578.8854381999844 L 399.99999999999716 400 L 458.123402240428 578.885438199982 L 646.2146829740202 221.1145618000152 L 153.78531702597977 221.1145618000159 L 341.8765977595727 578.8854381999812 L 400.0000000000016 400 L 458.12340224043044 578.8854381999852 L 646.2146829740203 221.1145618000177 L 153.78531702597965 221.11456180001855 L 341.87659775957036 578.8854381999842 L 399.9999999999969 400 L 458.12340224042816 578.8854381999822 L 646.2146829740204 221.11456180002014 L 153.78531702597948 221.11456180002122 L 341.87659775957286 578.885438199981 L 400.00000000000125 400 L 458.1234022404258 578.8854381999793 L 646.21468297402 221.11456180001235 L 153.78531702597962 221.11456180001875 L 341.87659775957053 578.8854381999839 L 400.0000000000056 400 L 458.1234022404331 578.8854381999886 L 646.2146829740202 221.11456180001483 L 153.78531702597974 221.11456180001628 L 341.8765977595682 578.885438199987 L 399.99999999999187 400 L 458.1234022404308 578.8854381999856 L 646.2146829740203 221.11456180001733 L 153.78531702597988 221.11456180001377 L 341.87659775957553 578.8854381999776 L 399.99999999999625 400 L 458.12340224042845 578.8854381999827 L 646.2146829740204 221.1145618000198 L 153.78531702597948 221.1145618000216 L 341.8765977595732 578.8854381999805 L 400.0000000000006 400 L 458.1234022404262 578.8854381999797 L 646.21468297402 221.11456180001198 L 153.7853170259796 221.1145618000191 L 341.87659775957087 578.8854381999835 L 400.000000000005 400 L 458.12340224043345 578.885438199989 L 646.2146829740202 221.11456180001449 L 153.7853170259797 221.11456180001662 L 341.87659775956854 578.8854381999865 L 399.99999999999125 400 L 458.1234022404311 578.8854381999861 L 646.2146829740202 221.114561800017 L 153.78531702597985 221.11456180001412 L 341.8765977595758 578.8854381999771 L 399.9999999999956 400 L 458.1234022404288 578.8854381999831 L 646.2146829740204 221.11456180001946 L 153.78531702597945 221.11456180002193 L 341.87659775957354 578.8854381999802 L 400 400 L 458.12340224042646 578.8854381999802 L 646.21468297402 221.11456180001167 L 153.78531702597962 221.11456180001946 L 341.8765977595712 578.8854381999831 L 400.0000000000044 400 L 458.1234022404338 578.8854381999895 L 646.2146829740202 221.11456180001412 L 153.78531702597974 221.114561800017 L 341.8765977595689 578.8854381999861 L 399.9999999999906 400 L 458.12340224043146 578.8854381999865 L 646.2146829740203 221.11456180001662 L 153.78531702597988 221.11456180001449 L 341.87659775957616 578.8854381999768 L 399.999999999995 400 L 458.12340224042913 578.8854381999835 L 646.2146829740204 221.1145618000191 L 153.78531702597942 221.1145618000223 L 341.8765977595738 578.8854381999797 L 399.9999999999994 400 L 458.1234022404268 578.8854381999805 L 646.21468297402 221.11456180001133 L 153.7853170259796 221.1145618000198 L 341.87659775957155 578.8854381999827 L 400.00000000000375 400 L 458.12340224043413 578.88543819999 L 646.2146829740201 221.11456180001377 L 153.7853170259797 221.11456180001733 L 341.8765977595692 578.8854381999856 L 399.99999999998994 400 L 458.1234022404318 578.885438199987 L 646.2146829740202 221.11456180001628 L 153.7853170259798 221.11456180001483 L 341.8765977595765 578.8854381999763 L 399.9999999999944 400 L 458.12340224042947 578.8854381999839 L 646.2146829740204 221.11456180001875 L 153.7853170259794 221.11456180002264 L 341.87659775957417 578.8854381999793 L 399.99999999999875 400 L 458.12340224042714 578.885438199981 L 646.21468297402 221.11456180001096 L 153.78531702597954 221.11456180002014 L 341.87659775957184 578.8854381999822 L 400.0000000000031 400 L 458.1234022404345 578.8854381999904 L 646.2146829740201 221.11456180001343 L 153.7853170259797 221.1145618000177 L 341.87659775956956 578.8854381999852 L 399.9999999999893 400 L 458.12340224043214 578.8854381999873 L 646.2146829740202 221.1145618000159 L 153.78531702597982 221.1145618000152 L 341.87659775957684 578.8854381999759 L 399.99999999999375 400 L 458.1234022404298 578.8854381999844 L 646.2146829740203 221.11456180001844 L 153.78531702597942 221.114561800023 L 341.8765977595649 578.8854381999911 L 399.99999999997993 400 L 458.1234022404371 578.8854381999937 L 646.21468297402 221.1145618000106 L 153.78531702597954 221.1145618000205 L 341.8765977595722 578.8854381999818 L 400.0000000000025 400 L 458.12340224042515 578.8854381999785 L 646.2146829740207 221.11456180002338 L 153.78531702597914 221.11456180002835 L 341.8765977595795 578.8854381999724 L 399.9999999999887 400 L 458.1234022404325 578.8854381999878 L 646.2146829740202 221.11456180001554 L 153.7853170259798 221.11456180001554 L 341.8765977595675 578.8854381999878 L 400.0000000000113 400 L 458.12340224043976 578.8854381999971 L 646.2146829740198 221.11456180000772 L 153.7853170259794 221.11456180002338 L 341.87659775957485 578.8854381999785 L 399.9999999999975 400 L 458.1234022404278 578.8854381999818 L 646.2146829740204 221.1145618000205 L 153.7853170259801 221.1145618000106 L 341.8765977595822 578.885438199969 L 399.9999999999837 400 L 458.1234022404351 578.8854381999911 L 646.2146829740201 221.1145618000127 L 153.78531702597965 221.11456180001838 L 341.8765977595702 578.8854381999844 L 400.00000000000625 400 L 458.12340224042316 578.8854381999759 L 646.2146829740196 221.11456180000488 L 153.78531702597925 221.11456180002622 L 341.8765977595775 578.885438199975 L 399.9999999999925 400 L 458.12340224043044 578.8854381999852 L 646.2146829740203 221.1145618000177 L 153.7853170259799 221.11456180001343 L 341.8765977595655 578.8854381999904 L 399.9999999999787 400 L 458.12340224043777 578.8854381999946 L 646.2146829740199 221.11456180000988 L 153.78531702597948 221.11456180002122 L 341.87659775957286 578.885438199981 L 400.00000000000125 400 L 458.1234022404258 578.8854381999793 L 646.2146829740207 221.11456180002264 L 153.7853170259791 221.11456180002907 L 341.87659775958014 578.8854381999716 L 399.99999999998744 400 L 458.1234022404331 578.8854381999886 L 646.2146829740202 221.11456180001483 L 153.78531702597974 221.11456180001628 L 341.8765977595682 578.885438199987 L 400.00000000001006 400 L 458.12340224042117 578.8854381999732 L 646.2146829740198 221.114561800007 L 153.78531702597934 221.1145618000241 L 341.87659775957553 578.8854381999776 L 399.99999999999625 400 L 458.12340224042845 578.8854381999827 L 646.2146829740204 221.1145618000198 L 153.78531702598 221.11456180001127 L 341.87659775956354 578.8854381999929 L 399.99999999998244 400 L 458.1234022404358 578.885438199992 L 646.21468297402 221.11456180001198 L 153.7853170259796 221.1145618000191 L 341.87659775957087 578.8854381999835 L 400.000000000005 400 L 458.12340224042384 578.8854381999768 L 646.2146829740207 221.11456180002477 L 153.78531702597925 221.11456180002693 L 341.87659775957815 578.8854381999741 L 399.99999999999125 400 L 458.1234022404311 578.8854381999861 L 646.2146829740202 221.114561800017 L 153.78531702597985 221.11456180001412 L 341.8765977595662 578.8854381999895 L 400.0000000000138 400 L 458.12340224043845 578.8854381999954 L 646.2146829740199 221.11456180000917 L 153.78531702597945 221.11456180002193 L 341.87659775957354 578.8854381999802 L 400 400 L 458.12340224042646 578.8854381999802 L 646.2146829740205 221.11456180002193 L 153.78531702598013 221.11456180000917 L 341.8765977595808 578.8854381999707 L 399.9999999999862 400 L 458.1234022404338 578.8854381999895 L 646.2146829740202 221.11456180001412 L 153.78531702597974 221.114561800017 L 341.8765977595689 578.8854381999861 L 400.0000000000088 400 L 458.1234022404218 578.8854381999741 L 646.2146829740198 221.1145618000063 L 153.7853170259793 221.11456180002477 L 341.87659775957616 578.8854381999768 L 399.999999999995 400 L 458.12340224042913 578.8854381999835 L 646.2146829740204 221.1145618000191 L 153.78531702598 221.11456180001198 L 341.8765977595642 578.885438199992 L 399.9999999999812 400 L 458.12340224043646 578.8854381999929 L 646.21468297402 221.11456180001133 L 153.7853170259796 221.1145618000198 L 341.87659775957155 578.8854381999827 L 400.00000000000375 400 L 458.12340224042447 578.8854381999776 L 646.2146829740207 221.1145618000241 L 153.78531702597917 221.11456180002762 L 341.87659775957883 578.8854381999734 L 399.99999999999 400 L 458.1234022404318 578.885438199987 L 646.2146829740202 221.11456180001628 L 153.7853170259798 221.11456180001483 L 341.8765977595669 578.8854381999886 L 400.00000000001256 400 L 458.12340224043913 578.8854381999963 L 646.2146829740198 221.11456180000846 L 153.7853170259794 221.11456180002264 L 341.87659775957417 578.8854381999793 L 399.99999999999875 400 L 458.12340224042714 578.885438199981 L 646.2146829740205 221.11456180002122 L 153.7853170259801 221.11456180000988 L 341.8765977595815 578.8854381999699 L 399.99999999998494 400 L 458.1234022404345 578.8854381999904 L 646.2146829740201 221.11456180001343 L 153.7853170259797 221.1145618000177 L 341.8765977595695 578.8854381999852 L 400.0000000000075 400 L 458.1234022404225 578.885438199975 L 646.2146829740198 221.11456180000556 L 153.7853170259793 221.11456180002548 L 341.87659775957684 578.8854381999759 L 399.99999999999375 400 L 458.1234022404298 578.8854381999844 L 646.2146829740203 221.11456180001844 L 153.78531702597994 221.1145618000127 L 341.8765977595649 578.8854381999912 L 399.99999999997993 400 L 458.1234022404371 578.8854381999937 L 646.21468297402 221.1145618000106 L 153.78531702597954 221.1145618000205 L 341.8765977595722 578.8854381999818 L 400.0000000000025 400 L 458.12340224042515 578.8854381999785 L 646.2146829740207 221.11456180002338 L 153.78531702597914 221.11456180002835 L 341.8765977595795 578.8854381999724 L 399.9999999999887 400" stroke-opacity="1" stroke-linecap="round" stroke-miterlimit="10"/></g></svg>