<svg version="1.1" xmlns="http://www.w3.org/2000/svg" xmlns:xlink="http://www.w3.org/1999/xlink" width="800" height="800" viewBox="0 0 800 800"><defs/><g/><g transform="scale(1,1)"><g transform="scale(1,1)"><rect fill="rgb(0,0,0)" stroke="none" x="0" y="0" width="800" height="800" fill-opacity="1"/></g><path fill="none" stroke="rgb(255,255,255)" paint-order="fill stroke markers" d=" M 400 400 L 435.7180470556641 442.5671108990368 L 380.9948241235568 507.7837084267095 L 261.435935394489 480.00000000000045 L 206.71271246238177 329.6491806742543 L 316.15915832659647 169.64918067425356 L 538.5640646055108 159.99999999999906 L 696.1333050874644 347.7837084267087 L 641.4100821553569 602.5671108990368 L 400.0000000000001 720 L 158.58991784464394 602.5671108990359 L 103.86669491253787 347.78370842670927 L 261.43593539449097 160.00000000000188 L 483.84084167340194 169.64918067425745 L 593.2872875376135 329.64918067425594 L 538.5640646055061 479.99999999999744 L 419.0051758764422 507.7837084267034 L 364.28195294434005 442.5671108990318 L 400.0000000000066 400 L 435.71804705566836 442.56711089904167 L 380.9948241235556 507.78370842671563 L 261.4359353944841 480.00000000000335 L 206.71271246237697 329.64918067425276 L 316.1591583265953 169.64918067424946 L 538.5640646055125 159.99999999999622 L 696.1333050874665 347.78370842670813 L 641.4100821553582 602.5671108990372 L 399.9999999999997 720 L 158.58991784464493 602.5671108990354 L 103.86669491254008 347.78370842670984 L 261.43593539449205 160.0000000000051 L 483.84084167340075 169.64918067426152 L 593.2872875376087 329.6491806742576 L 538.5640646055012 479.99999999999454 L 419.005175876441 507.78370842669733 L 364.28195294434425 442.56711089902683 L 400.0000000000132 400 L 435.7180470556724 442.5671108990467 L 380.99482412355496 507.7837084267218 L 261.4359353944792 480.0000000000063 L 206.71271246237242 329.6491806742505 L 316.1591583265929 169.64918067424583 L 538.564064605514 159.9999999999933 L 696.1333050874689 347.7837084267086 L 641.4100821553591 602.5671108990377 L 399.99999999999994 720 L 158.5899178446452 602.5671108990339 L 103.86669491254224 347.7837084267104 L 261.4359353944944 160.0000000000075 L 483.84084167339836 169.64918067426518 L 593.2872875376039 329.64918067425924 L 538.564064605496 479.9999999999921 L 419.0051758764404 507.7837084266912 L 364.2819529443484 442.5671108990219 L 400.0000000000198 400 L 435.7180470556768 442.56711089905156 L 380.9948241235536 507.7837084267278 L 261.435935394474 480.00000000000875 L 206.71271246236736 329.6491806742496 L 316.1591583265921 169.6491806742416 L 538.5640646055147 159.99999999998988 L 696.133305087471 347.783708426707 L 641.4100821553593 602.5671108990391 L 400.00000000000125 720 L 158.58991784464692 602.5671108990342 L 103.86669491254457 347.78370842670995 L 261.435935394495 160.00000000001094 L 483.84084167339756 169.64918067426942 L 593.2872875375994 329.6491806742615 L 538.5640646054915 479.99999999998863 L 419.00517587643895 507.78370842668517 L 364.2819529443525 442.5671108990168 L 400.0000000000264 400 L 435.7180470556808 442.5671108990567 L 380.9948241235522 507.7837084267339 L 261.4359353944694 480.00000000001216 L 206.7127124623623 329.6491806742486 L 316.1591583265913 169.64918067423739 L 538.5640646055169 159.9999999999874 L 696.1333050874729 347.78370842670535 L 641.4100821553596 602.5671108990407 L 400.00000000000034 720 L 158.58991784464865 602.5671108990344 L 103.86669491254702 347.78370842670944 L 261.4359353944974 160.0000000000134 L 483.8408416733952 169.64918067427303 L 593.2872875375949 329.6491806742638 L 538.5640646054862 479.9999999999862 L 419.00517587643833 507.7837084266789 L 364.28195294435653 442.5671108990117 L 400.00000000003297 400 L 435.71804705568513 442.5671108990615 L 380.9948241235508 507.7837084267399 L 261.4359353944642 480.0000000000146 L 206.71271246235776 329.64918067424634 L 316.1591583265873 169.64918067423434 L 538.5640646055193 159.99999999998496 L 696.1333050874753 347.7837084267058 L 641.4100821553628 602.5671108990387 L 399.9999999999994 720 L 158.58991784464897 602.567110899033 L 103.86669491254855 347.7837084267132 L 261.4359353944998 160.00000000001586 L 483.8408416733944 169.64918067427726 L 593.2872875375893 329.64918067426333 L 538.5640646054811 479.99999999998374 L 419.00517587643697 507.7837084266729 L 364.2819529443612 442.56711089900716 L 400.00000000003956 400 L 435.7180470556892 442.56711089906656 L 380.9948241235509 507.7837084267462 L 261.43593539445897 480.00000000001705 L 206.71271246235324 329.64918067424406 L 316.1591583265865 169.64918067423008 L 538.5640646055217 159.99999999998252 L 696.1333050874777 347.7837084267063 L 641.410082155363 602.56711089904 L 399.9999999999984 720 L 158.58991784464922 602.5671108990316 L 103.866694912551 347.7837084267127 L 261.43593539449864 160.00000000002024 L 483.84084167339364 169.64918067428147 L 593.2872875375848 329.6491806742656 L 538.5640646054771 479.99999999997937 L 419.00517587643554 507.78370842666686 L 364.28195294436523 442.56711089900205 L 400.00000000004616 400 L 435.71804705569326 442.5671108990716 L 380.99482412354956 507.7837084267523 L 261.435935394455 480.0000000000215 L 206.7127124623487 329.64918067424173 L 316.1591583265857 169.64918067422587 L 538.5640646055206 159.99999999997812 L 696.13330508748 347.78370842670677 L 641.4100821553634 602.5671108990415 L 400.00000000000205 720 L 158.5899178446495 602.5671108990301 L 103.86669491255333 347.7837084267122 L 261.43593539450103 160.0000000000227 L 483.84084167339284 169.64918067428573 L 593.2872875375803 329.64918067426794 L 538.5640646054719 479.9999999999769 L 419.0051758764342 507.78370842666084 L 364.28195294436927 442.567110898997 L 400.00000000005275 400 L 435.7180470556973 442.56711089907674 L 380.99482412354814 507.7837084267583 L 261.43593539444976 480.00000000002393 L 206.71271246234417 329.64918067423946 L 316.1591583265817 169.64918067422283 L 538.564064605523 159.9999999999757 L 696.1333050874823 347.7837084267073 L 641.4100821553665 602.5671108990396 L 400.0000000000011 720 L 158.5899178446498 602.5671108990286 L 103.86669491255498 347.783708426716 L 261.4359353945034 160.00000000002515 L 483.8408416733921 169.64918067428997 L 593.2872875375747 329.6491806742675 L 538.5640646054667 479.9999999999744 L 419.00517587643276 507.78370842665475 L 364.2819529443739 442.56711089899244 L 400.0000000000593 400 L 435.71804705570133 442.5671108990818 L 380.9948241235483 507.78370842676463 L 261.43593539444464 480.0000000000264 L 206.71271246233965 329.6491806742372 L 316.15915832658095 169.6491806742186 L 538.5640646055253 159.9999999999732 L 696.1333050874848 347.78370842670773 L 641.4100821553668 602.567110899041 L 400.00000000000017 720 L 158.58991784465007 602.5671108990273 L 103.86669491255736 347.78370842671546 L 261.43593539450575 160.0000000000276 L 483.8408416733913 169.64918067429417 L 593.2872875375701 329.64918067426976 L 538.5640646054616 479.99999999997203 L 419.0051758764314 507.78370842664873 L 364.28195294437796 442.5671108989874 L 400.0000000000659 400 L 435.71804705570537 442.56711089908686 L 380.9948241235469 507.78370842677066 L 261.43593539443947 480.0000000000288 L 206.71271246233513 329.64918067423486 L 316.15915832658015 169.64918067421436 L 538.5640646055276 159.99999999997075 L 696.1333050874857 347.78370842669983 L 641.410082155367 602.5671108990424 L 399.9999999999992 720 L 158.58991784465607 602.5671108990326 L 103.86669491255975 347.783708426715 L 261.4359353945081 160.00000000003004 L 483.84084167338403 169.64918067429602 L 593.2872875375656 329.6491806742721 L 538.5640646054563 479.99999999996953 L 419.00517587643304 507.78370842664214 L 364.281952944382 442.56711089898226 L 400.0000000000725 400 L 435.71804705571066 442.56711089909095 L 380.9948241235455 507.78370842677674 L 261.4359353944343 480.00000000003126 L 206.71271246232857 329.6491806742381 L 316.15915832657936 169.64918067421019 L 538.56406460553 159.99999999996834 L 696.133305087488 347.7837084267003 L 641.4100821553674 602.5671108990439 L 399.9999999999983 720 L 158.58991784465636 602.5671108990311 L 103.86669491256208 347.7837084267145 L 261.43593539451047 160.0000000000325 L 483.84084167338324 169.64918067430025 L 593.287287537561 329.64918067427436 L 538.5640646054512 479.99999999996714 L 419.0051758764317 507.7837084266361 L 364.28195294438603 442.5671108989772 L 400.00000000007907 400 L 435.7180470557147 442.567110899096 L 380.9948241235441 507.78370842678277 L 261.43593539442907 480.0000000000337 L 206.712712462324 329.64918067423577 L 316.1591583265786 169.64918067420595 L 538.5640646055324 159.99999999996592 L 696.1333050874905 347.78370842670074 L 641.4100821553677 602.5671108990454 L 399.9999999999973 720 L 158.58991784465664 602.5671108990298 L 103.86669491256441 347.78370842671404 L 261.43593539451285 160.00000000003493 L 483.84084167338244 169.6491806743045 L 593.2872875375565 329.64918067427664 L 538.564064605446 479.99999999996464 L 419.00517587643026 507.7837084266301 L 364.2819529443901 442.56711089897215 L 400.00000000008566 400 L 435.7180470557187 442.56711089910107 L 380.99482412354274 507.7837084267888 L 261.43593539442395 480.00000000003615 L 206.71271246231947 329.64918067423343 L 316.1591583265778 169.64918067420172 L 538.5640646055278 159.99999999995953 L 696.1333050874928 347.78370842670125 L 641.410082155368 602.5671108990467 L 400.0000000000055 720 L 158.5899178446569 602.5671108990283 L 103.8666949125668 347.78370842671353 L 261.4359353945083 160.0000000000413 L 483.84084167338165 169.6491806743087 L 593.2872875375521 329.64918067427897 L 538.564064605443 479.9999999999583 L 419.0051758764289 507.783708426624 L 364.28195294439416 442.56711089896703 L 400.00000000009226 400 L 435.71804705572276 442.5671108991062 L 380.9948241235413 507.7837084267949 L 261.435935394421 480.0000000000425 L 206.71271246231495 329.64918067423116 L 316.1591583265771 169.64918067419748 L 538.5640646055303 159.99999999995703 L 696.1333050874952 347.7837084267017 L 641.4100821553683 602.5671108990482 L 400.00000000000455 720 L 158.58991784465724 602.5671108990268 L 103.86669491256924 347.7837084267131 L 261.4359353945107 160.00000000004377 L 483.8408416733809 169.6491806743129 L 593.2872875375475 329.64918067428124 L 538.5640646054379 479.99999999995583 L 419.0051758764275 507.783708426618 L 364.2819529443982 442.56711089896197 L 400.00000000009885 400 L 435.71804705572686 442.56711089911124 L 380.99482412353996 507.7837084268009 L 261.4359353944158 480.000000000045 L 206.7127124623104 329.6491806742289 L 316.1591583265763 169.64918067419325 L 538.5640646055326 159.9999999999546 L 696.1333050874975 347.7837084267022 L 641.4100821553685 602.5671108990497 L 400.0000000000036 720 L 158.5899178446575 602.5671108990255 L 103.86669491257163 347.78370842671256 L 261.4359353945131 160.0000000000462 L 483.84084167338017 169.64918067431717 L 593.287287537543 329.6491806742835 L 538.5640646054328 479.9999999999534 L 419.0051758764261 507.78370842661195 L 364.28195294440224 442.5671108989569 L 400.00000000010544 400 L 435.7180470557309 442.5671108991163 L 380.99482412353854 507.7837084268069 L 261.43593539441065 480.0000000000474 L 206.71271246230586 329.64918067422656 L 316.15915832656896 169.6491806741914 L 538.5640646055349 159.9999999999522 L 696.1333050874998 347.7837084267027 L 641.4100821553689 602.5671108990512 L 399.9999999999936 720 L 158.58991784466355 602.5671108990308 L 103.86669491257243 347.7837084267205 L 261.43593539451535 160.00000000004863 L 483.8408416733794 169.64918067432137 L 593.2872875375384 329.64918067428584 L 538.5640646054253 479.99999999995487 L 419.00517587642776 507.78370842660536 L 364.2819529444075 442.5671108989528 L 400.00000000011204 400 L 435.7180470557349 442.56711089912136 L 380.99482412353717 507.78370842681295 L 261.43593539440315 480.00000000004593 L 206.71271246229935 329.6491806742298 L 316.1591583265682 169.6491806741872 L 538.5640646055373 159.99999999994972 L 696.1333050875023 347.7837084267032 L 641.4100821553691 602.5671108990525 L 399.9999999999926 720 L 158.58991784466383 602.5671108990294 L 103.86669491257487 347.78370842672007 L 261.43593539451774 160.00000000005113 L 483.8408416733786 169.6491806743256 L 593.2872875375339 329.6491806742881 L 538.5640646054246 479.9999999999446 L 419.0051758764264 507.78370842659933 L 364.28195294441156 442.56711089894776 L 400.00000000011863 400 L 435.71804705573896 442.5671108991265 L 380.99482412353575 507.78370842681903 L 261.4359353944026 480.0000000000563 L 206.71271246229483 329.6491806742275 L 316.1591583265674 169.64918067418296 L 538.5640646055397 159.99999999994728 L 696.1333050875046 347.78370842670364 L 641.4100821553693 602.567110899054 L 400.0000000000099 720 L 158.58991784466411 602.567110899028 L 103.86669491257726 347.78370842671956 L 261.43593539452013 160.00000000005355 L 483.84084167337784 169.64918067432984 L 593.2872875375293 329.64918067429045 L 538.5640646054195 479.99999999994213 L 419.00517587642497 507.7837084265933 L 364.2819529444156 442.5671108989427 L 400.0000000001252 400 L 435.718047055743 442.56711089913154 L 380.9948241235344 507.78370842682506 L 261.4359353943974 480.0000000000587 L 206.71271246229028 329.6491806742252 L 316.1591583265667 169.64918067417872 L 538.5640646055421 159.9999999999448 L 696.133305087507 347.7837084267041 L 641.4100821553697 602.5671108990555 L 400.0000000000089 720 L 158.58991784466437 602.5671108990265 L 103.86669491257965 347.7837084267191 L 261.43593539452246 160.00000000005602 L 483.84084167337704 169.64918067433405 L 593.2872875375248 329.6491806742927 L 538.5640646054144 479.9999999999397 L 419.0051758764236 507.7837084265872 L 364.28195294441963 442.5671108989376 L 400.0000000001318 400" stroke-opacity="1" stroke-linecap="round" stroke-miterlimit="10"/></g></svg>