<svg version="1.1" xmlns="http://www.w3.org/2000/svg" xmlns:xlink="http://www.w3.org/1999/xlink" width="800" height="800" viewBox="0 0 800 800"><defs/><g/><g transform="scale(1,1)"><g transform="scale(1,1)"><rect fill="rgb(0,0,0)" stroke="none" x="0" y="0" width="800" height="800" fill-opacity="1"/></g><path fill="none" stroke="rgb(255,255,255)" paint-order="fill stroke markers" d=" M 400 400 L 380.99482412355695 292.2162915732914 L 206.7127124623832 470.35081932574525 L 538.5640646055103 640.0000000000001 L 641.4100821553562 197.43288910096356 L 158.58991784464348 197.43288910096356 L 261.43593539449023 639.9999999999998 L 593.2872875376161 470.35081932574474 L 419.00517587644333 292.2162915732893 L 399.9999999999989 400 L 380.9948241235569 292.21629157329136 L 206.71271246238234 470.35081932574553 L 538.564064605511 640.0000000000005 L 641.4100821553562 197.4328891009638 L 158.58991784464368 197.43288910096427 L 261.43593539448966 640.0000000000001 L 593.2872875376202 470.3508193257461 L 419.00517587644293 292.2162915732925 L 399.9999999999978 400 L 380.99482412355644 292.2162915732881 L 206.71271246238314 470.35081932574536 L 538.5640646055089 639.9999999999984 L 641.4100821553566 197.43288910096322 L 158.5899178446428 197.43288910096373 L 261.4359353944915 639.9999999999991 L 593.2872875376174 470.3508193257458 L 419.0051758764438 292.2162915732873 L 400.00000000000125 400 L 380.9948241235555 292.21629157328505 L 206.71271246238703 470.35081932574326 L 538.5640646055099 639.9999999999998 L 641.4100821553569 197.43288910096277 L 158.58991784464195 197.43288910096325 L 261.4359353944902 640.0000000000017 L 593.287287537615 470.35081932574485 L 419.0051758764447 292.21629157328204 L 399.9999999999956 400 L 380.9948241235563 292.2162915732902 L 206.71271246237805 470.35081932574667 L 538.5640646055085 639.9999999999973 L 641.4100821553561 197.43288910096328 L 158.58991784464348 197.43288910096473 L 261.43593539448716 640.0000000000032 L 593.287287537619 470.3508193257462 L 419.0051758764426 292.2162915732937 L 399.99999999998994 400 L 380.9948241235572 292.2162915732955 L 206.7127124623826 470.35081932574667 L 538.5640646055135 640.0000000000017 L 641.4100821553567 197.43288910096547 L 158.5899178446441 197.4328891009625 L 261.43593539449046 639.9999999999978 L 593.2872875376231 470.3508193257476 L 419.00517587644345 292.2162915732884 L 400.0000000000025 400 L 380.9948241235551 292.2162915732839 L 206.71271246237364 470.35081932575 L 538.5640646055076 639.9999999999914 L 641.4100821553559 197.432889100966 L 158.58991784464328 197.43288910096203 L 261.4359353944891 640.0000000000003 L 593.2872875376141 470.3508193257442 L 419.00517587644134 292.21629157330005 L 399.9999999999787 400 L 380.99482412355894 292.21629157330597 L 206.7127124623908 470.3508193257439 L 538.5640646055109 639.9999999999966 L 641.4100821553574 197.4328891009645 L 158.58991784464482 197.4328891009635 L 261.4359353944924 639.999999999995 L 593.2872875376313 470.35081932575036 L 419.00517587644515 292.21629157327794 L 399.99999999999125 400 L 380.99482412355684 292.2162915732943 L 206.71271246238183 470.3508193257473 L 538.5640646055142 640.000000000002 L 641.410082155359 197.43288910096297 L 158.58991784464158 197.43288910096103 L 261.4359353944866 640.0000000000053 L 593.2872875376224 470.350819325747 L 419.0051758764431 292.21629157328954 L 400.00000000000375 400 L 380.99482412355474 292.2162915732828 L 206.712712462399 470.3508193257411 L 538.5640646055049 639.9999999999936 L 641.4100821553557 197.43288910096553 L 158.58991784464314 197.4328891009625 L 261.43593539448983 640 L 593.2872875376133 470.3508193257436 L 419.005175876441 292.21629157330113 L 399.99999999997993 400 L 380.9948241235586 292.21629157330483 L 206.71271246239002 470.3508193257445 L 538.5640646055116 639.999999999997 L 641.4100821553544 197.43288910096055 L 158.5899178446418 197.43288910096743 L 261.4359353944965 639.9999999999966 L 593.2872875376315 470.350819325747 L 419.00517587644634 292.21629157327936 L 399.9999999999925 400 L 380.99482412355803 292.21629157329295 L 206.71271246238 470.35081932574514 L 538.5640646055115 640.0000000000043 L 641.410082155354 197.43288910096652 L 158.58991784464143 197.4328891009615 L 261.4359353944872 640.000000000005 L 593.2872875376216 470.3508193257464 L 419.0051758764427 292.2162915732907 L 400.000000000005 400 L 380.9948241235544 292.2162915732816 L 206.71271246237202 470.3508193257513 L 538.5640646055181 640.0000000000077 L 641.4100821553575 197.43288910095757 L 158.58991784463524 197.43288910096234 L 261.4359353944848 640.0000000000174 L 593.2872875376378 470.35081932575525 L 419.0051758764481 292.2162915732689 L 399.9999999999812 400 L 380.99482412355974 292.2162915733034 L 206.7127124623882 470.35081932574235 L 538.5640646055089 639.9999999999993 L 641.4100821553571 197.43288910096348 L 158.5899178446446 197.43288910096453 L 261.43593539449375 639.9999999999943 L 593.2872875376036 470.3508193257396 L 419.0051758764385 292.21629157331387 L 399.99999999995737 400 L 380.99482412356207 292.21629157332575 L 206.7127124624064 470.350819325739 L 538.5640646055065 639.9999999999869 L 641.410082155351 197.4328891009626 L 158.58991784463842 197.4328891009654 L 261.4359353944913 640.0000000000066 L 593.2872875376197 470.3508193257485 L 419.0051758764439 292.2162915732921 L 400.00000000000625 400 L 380.99482412355553 292.2162915732802 L 206.7127124623702 470.3508193257491 L 538.5640646055153 640.00000000001 L 641.4100821553602 197.4328891009605 L 158.58991784463805 197.43288910095944 L 261.43593539448204 640.000000000015 L 593.287287537638 470.3508193257519 L 419.0051758764462 292.21629157326976 L 399.99999999998244 400 L 380.99482412355786 292.21629157330256 L 206.71271246238845 470.35081932574576 L 538.564064605513 639.9999999999977 L 641.4100821553542 197.43288910095956 L 158.58991784464158 197.43288910096848 L 261.43593539449785 639.9999999999959 L 593.2872875376017 470.3508193257417 L 419.0051758764397 292.2162915733153 L 399.9999999999586 400 L 380.9948241235632 292.2162915733243 L 206.71271246240457 470.35081932573684 L 538.5640646055037 639.9999999999893 L 641.4100821553536 197.43288910096558 L 158.58991784464118 197.43288910096248 L 261.4359353944885 640.0000000000043 L 593.2872875376199 470.35081932574514 L 419.00517587644197 292.21629157329295 L 400.00000000000756 400 L 380.99482412355366 292.21629157327936 L 206.71271246237043 470.35081932575247 L 538.5640646055194 640.0000000000084 L 641.4100821553476 197.43288910096464 L 158.58991784463504 197.43288910096334 L 261.4359353944793 640.0000000000127 L 593.2872875376362 470.35081932575406 L 419.00517587644737 292.2162915732712 L 399.9999999999837 400 L 380.994824123559 292.21629157330113 L 206.71271246238658 470.3508193257436 L 538.5640646055102 640 L 641.4100821553568 197.4328891009625 L 158.58991784464433 197.43288910096553 L 261.43593539449506 639.9999999999936 L 593.287287537602 470.35081932573837 L 419.00517587644964 292.21629157324884 L 399.99999999995987 400 L 380.99482412356133 292.2162915733235 L 206.7127124624048 470.3508193257402 L 538.5640646055077 639.9999999999876 L 641.4100821553507 197.43288910096166 L 158.5899178446439 197.43288910095956 L 261.4359353944927 640.0000000000059 L 593.2872875376181 470.3508193257473 L 419.0051758764401 292.2162915732938 L 400.0000000000088 400 L 380.9948241235518 292.21629157327845 L 206.71271246236861 470.35081932575036 L 538.5640646055235 640.0000000000068 L 641.4100821553503 197.43288910096757 L 158.58991784463203 197.43288910096732 L 261.4359353944834 640.0000000000143 L 593.2872875376344 470.35081932575616 L 419.0051758764455 292.21629157327203 L 399.99999999998494 400 L 380.9948241235571 292.2162915733003 L 206.7127124623848 470.35081932574144 L 538.5640646055142 639.9999999999984 L 641.4100821553595 197.43288910096544 L 158.58991784464126 197.43288910096942 L 261.43593539449233 639.9999999999914 L 593.2872875376022 470.350819325735 L 419.00517587645083 292.2162915732502 L 399.9999999999611 400 L 380.99482412356247 292.2162915733221 L 206.712712462405 470.35081932574354 L 538.564064605505 639.99999999999 L 641.4100821553477 197.43288910095768 L 158.5899178446409 197.43288910096342 L 261.43593539448307 639.9999999999998 L 593.2872875376183 470.35081932574394 L 419.00517587644435 292.21629157329573 L 400.00000000001006 400 L 380.994824123556 292.2162915732765 L 206.7127124623688 470.3508193257537 L 538.564064605514 640.000000000013 L 641.410082155357 197.43288910095555 L 158.5899178446502 197.4328891009656 L 261.4359353945057 639.9999999999845 L 593.2872875375822 470.35081932573377 L 419.0051758764317 292.21629157334024 L 400.00000000005895 400 L 380.9948241235671 292.2162915733668 L 206.7127124624374 470.35081932572575 L 538.5640646055001 639.9999999999652 L 641.4100821553469 197.43288910096965 L 158.5899178446401 197.4328891009515 L 261.4359353944782 640.0000000000244 L 593.2872875376507 470.3508193257617 L 419.00517587644896 292.21629157325106 L 399.99999999996237 400 L 380.9948241235606 292.2162915733212 L 206.71271246240119 470.3508193257359 L 538.5640646055091 639.9999999999883 L 641.4100821553562 197.4328891009675 L 158.58991784463794 197.43288910096743 L 261.43593539448716 640.0000000000014 L 593.2872875376186 470.35081932574053 L 419.0051758764424 292.21629157329664 L 400.0000000000113 400 L 380.9948241235541 292.21629157327567 L 206.712712462369 470.3508193257571 L 538.5640646055181 640.0000000000114 L 641.4100821553541 197.4328891009516 L 158.58991784464718 197.43288910096956 L 261.4359353944961 639.9999999999783 L 593.2872875375824 470.3508193257304 L 419.00517587643594 292.2162915733421 L 399.9999999999147 400 L 380.99482412357133 292.2162915733648 L 206.7127124624376 470.35081932572916 L 538.5640646054906 639.9999999999716 L 641.410082155344 197.43288910096572 L 158.58991784463714 197.43288910095544 L 261.43593539448227 640.000000000026 L 593.287287537651 470.3508193257584 L 419.005175876447 292.21629157325197 L 399.9999999999636 400 L 380.9948241235587 292.21629157332035 L 206.71271246240138 470.3508193257393 L 538.5640646055132 639.9999999999867 L 641.4100821553532 197.43288910096356 L 158.58991784464644 197.43288910095765 L 261.43593539449125 640.000000000003 L 593.2872875376147 470.35081932574815 L 419.00517587644055 292.2162915732975 L 400.00000000001256 400 L 380.9948241235522 292.2162915732748 L 206.7127124623652 470.35081932574946 L 538.5640646055222 640.0000000000098 L 641.4100821553625 197.43288910096143 L 158.58991784464416 197.43288910097348 L 261.4359353945001 639.9999999999799 L 593.2872875375825 470.350819325727 L 419.005175876434 292.216291573343 L 399.999999999916 400 L 380.99482412356946 292.21629157336395 L 206.7127124624378 470.35081932573246 L 538.5640646054947 639.9999999999699 L 641.4100821553524 197.43288910097553 L 158.58991784463413 197.43288910095936 L 261.4359353944727 640.0000000000198 L 593.2872875376511 470.35081932575497 L 419.0051758764513 292.2162915732539 L 399.99999999996487 400 L 380.9948241235629 292.2162915733184 L 206.7127124624016 470.35081932574263 L 538.5640646055036 639.999999999993 L 641.4100821553502 197.43288910095964 L 158.58991784464337 197.43288910096152 L 261.4359353944953 640.0000000000047 L 593.2872875376149 470.35081932574485 L 419.0051758764386 292.21629157329835 L 400.0000000000138 400 L 380.9948241235503 292.2162915732739 L 206.7127124623654 470.3508193257528 L 538.5640646055261 640.0000000000082 L 641.4100821553595 197.4328891009575 L 158.58991784465272 197.43288910096368 L 261.4359353945042 639.9999999999815 L 593.2872875375788 470.3508193257347 L 419.0051758764559 292.2162915732092 L 399.99999999991724 400 L 380.9948241235675 292.21629157336304 L 206.71271246243398 470.35081932572484 L 538.5640646054987 639.9999999999682 L 641.4100821553494 197.43288910097158 L 158.58991784463112 197.4328891009633 L 261.4359353944768 640.0000000000215 L 593.2872875376513 470.3508193257516 L 419.00517587644936 292.21629157325475 L 399.9999999999661 400 L 380.99482412356105 292.2162915733175 L 206.7127124624018 470.350819325746 L 538.5640646055076 639.9999999999914 L 641.4100821553587 197.43288910096942 L 158.5899178446404 197.43288910096544 L 261.43593539448574 639.9999999999984 L 593.2872875376152 470.35081932574144 L 419.0051758764429 292.2162915733003 L 400.00000000001506 400 L 380.9948241235545 292.216291573272 L 206.71271246236563 470.35081932575616 L 538.5640646055166 640.0000000000143 L 641.4100821553565 197.43288910095356 L 158.58991784464965 197.43288910096757 L 261.4359353945083 639.9999999999832 L 593.287287537579 470.3508193257313 L 419.005175876454 292.21629157321007 L 399.9999999999185 400 L 380.99482412356565 292.21629157336224 L 206.7127124624342 470.3508193257282 L 538.5640646054892 639.9999999999745 L 641.4100821553465 197.43288910096766 L 158.5899178446396 197.43288910095347 L 261.4359353944809 640.0000000000231 L 593.2872875376476 470.3508193257593 L 419.0051758764475 292.2162915732556 L 399.9999999999674 400 L 380.99482412355917 292.21629157331665 L 206.712712462398 470.35081932573837 L 538.5640646055117 639.9999999999897 L 641.4100821553557 197.43288910096553 L 158.5899178446374 197.43288910096936 L 261.43593539448983 640 L 593.2872875376154 470.35081932573814 L 419.005175876441 292.2162915733012 L 400.0000000000163 400 L 380.99482412355263 292.2162915732711 L 206.7127124623658 470.3508193257595 L 538.5640646055207 640.0000000000127 L 641.410082155365 197.43288910096337 L 158.58991784464664 197.4328891009715 L 261.43593539449876 639.9999999999769 L 593.2872875376839 470.35081932576605 L 419.0051758764582 292.21629157321206 L 399.99999999991974 400" stroke-opacity="1" stroke-linecap="round" stroke-miterlimit="10"/></g></svg>