<svg version="1.1" xmlns="http://www.w3.org/2000/svg" xmlns:xlink="http://www.w3.org/1999/xlink" width="800" height="800" viewBox="0 0 800 800"><defs/><g/><g transform="scale(1,1)"><g transform="scale(1,1)"><rect fill="rgb(0,0,0)" stroke="none" x="0" y="0" width="800" height="800" fill-opacity="1"/></g><path fill="none" stroke="rgb(255,255,255)" paint-order="fill stroke markers" d=" M 400 400 L 560 560 L 400 80 L 240.00000000000006 560 L 399.9999999999999 400 L 560 559.9999999999999 L 399.99999999999994 80 L 240 560.0000000000001 L 399.9999999999998 400 L 560.0000000000003 560.0000000000002 L 399.9999999999999 80 L 239.99999999999991 559.9999999999999 L 399.99999999999966 400 L 560.0000000000002 560.0000000000005 L 399.9999999999999 80 L 240.00000000000003 559.9999999999998 L 399.99999999999955 400 L 560.0000000000003 560.0000000000005 L 399.99999999999983 80 L 239.99999999999952 560.0000000000005 L 400.00000000000057 400 L 559.9999999999999 559.9999999999999 L 400.00000000000034 80 L 240.00000000000043 560 L 399.9999999999993 400 L 560.0000000000005 560.0000000000006 L 400.00000000000034 80 L 239.99999999999997 560.0000000000006 L 400.00000000000034 400 L 560.0000000000011 560.0000000000011 L 400.0000000000003 80 L 239.9999999999995 560.0000000000011 L 399.99999999999903 400 L 559.9999999999995 559.9999999999994 L 400.0000000000002 80 L 240.00000000000014 560.0000000000005 L 399.9999999999978 400 L 560.0000000000001 560 L 400.00000000000017 80 L 240.00000000000077 559.9999999999999 L 400.0000000000011 400 L 560.0000000000014 560.0000000000001 L 400.00000000000017 80 L 240.0000000000014 559.9999999999993 L 399.99999999999983 400 L 560.0000000000015 560.0000000000013 L 399.999999999999 80 L 239.99999999999923 560.0000000000005 L 399.9999999999986 400 L 560.0000000000005 559.9999999999991 L 400.00000000000006 80 L 240.00000000000043 560.0000000000003 L 399.9999999999973 400 L 560.0000000000005 560.0000000000002 L 399.9999999999989 80 L 239.99999999999824 560.0000000000014 L 400.0000000000006 400 L 560.0000000000006 560.0000000000014 L 400 80 L 239.99999999999943 560.0000000000014 L 399.9999999999994 400 L 560.0000000000018 560.0000000000014 L 399.9999999999988 80 L 239.99999999999955 560.0000000000002 L 399.9999999999981 400 L 560.0000000000018 560.0000000000026 L 399.99999999999994 80 L 240.00000000000074 560.0000000000002 L 399.9999999999969 400 L 559.9999999999985 559.9999999999982 L 399.99999999999875 80 L 240.00000000000082 559.999999999999 L 399.9999999999956 400 L 559.9999999999985 559.9999999999993 L 399.99999999999983 80 L 240.00000000000202 559.999999999999 L 400.00000000000347 400 L 559.9999999999998 559.9999999999993 L 399.9999999999987 80 L 240.0000000000021 559.9999999999978 L 400.0000000000022 400 L 559.9999999999999 560.0000000000005 L 399.9999999999975 80 L 240.0000000000022 559.9999999999966 L 400.00000000000097 400 L 560.0000000000011 560.0000000000006 L 399.9999999999986 80 L 240 560.0000000000023 L 399.99999999999966 400 L 560.0000000000011 560.0000000000017 L 399.99999999999966 80 L 240.00000000000009 560.0000000000011 L 399.9999999999984 400 L 560.0000000000013 560.000000000003 L 400.0000000000008 80 L 240.00000000000014 559.9999999999999 L 399.99999999999716 400 L 560.0000000000036 560.0000000000018 L 399.9999999999973 80 L 240.00000000000023 559.9999999999987 L 399.9999999999959 400 L 559.9999999999991 559.9999999999984 L 399.9999999999984 80 L 240.0000000000026 559.9999999999999 L 399.99999999999466 400 L 559.9999999999992 559.9999999999995 L 399.99999999999955 80 L 240.00000000000267 559.9999999999986 L 400.0000000000025 400 L 559.9999999999993 560.0000000000008 L 400.0000000000006 80 L 240.00000000000273 559.9999999999975 L 400.00000000000125 400 L 560.0000000000061 560.0000000000042 L 400.0000000000017 80 L 239.99999999999827 560.0000000000009 L 399.9999999999909 400 L 560.0000000000017 560.0000000000009 L 399.9999999999983 80 L 240.0000000000052 559.9999999999974 L 399.99999999999875 400 L 559.9999999999973 559.9999999999975 L 399.9999999999994 80 L 240.0000000000007 560.0000000000008 L 400.0000000000066 400 L 560.0000000000018 560.0000000000032 L 400.00000000000045 80 L 240.00000000000531 559.999999999995 L 399.99999999999625 400 L 559.9999999999998 559.9999999999976 L 400.0000000000016 80 L 240.00000000000088 559.9999999999984 L 400.0000000000041 400 L 560.0000000000043 560.0000000000033 L 399.9999999999981 80 L 239.99999999999866 560.0000000000041 L 399.99999999999375 400 L 559.9999999999999 559.9999999999999 L 399.9999999999992 80 L 240.0000000000033 559.9999999999983 L 400.0000000000016 400 L 560.0000000000045 560.0000000000057 L 400.00000000000034 80 L 239.9999999999988 560.0000000000017 L 399.99999999999125 400 L 560.0000000000023 560 L 400.0000000000014 80 L 240.00000000000344 559.999999999996 L 399.99999999999903 400 L 559.9999999999978 559.9999999999966 L 399.99999999999795 80 L 240.00000000000125 560.0000000000016 L 400.0000000000069 400 L 560.0000000000025 560.0000000000024 L 399.99999999999903 80 L 240.00000000000585 559.9999999999959 L 399.99999999999653 400 L 559.999999999998 559.999999999999 L 400.00000000000017 80 L 240.0000000000014 559.9999999999993 L 400.0000000000044 400 L 560.0000000000049 560.0000000000025 L 400.00000000000125 80 L 239.9999999999992 560.000000000005 L 399.99999999999403 400 L 559.9999999999981 560.0000000000014 L 400.00000000000233 80 L 240.00000000000156 559.9999999999969 L 400.0000000000019 400 L 560.000000000005 560.0000000000048 L 399.9999999999989 80 L 239.99999999999937 560.0000000000026 L 399.99999999999153 400 L 560.0000000000028 559.9999999999991 L 399.99999999999545 80 L 240.00000000000173 559.9999999999945 L 399.9999999999994 400 L 559.9999999999961 559.9999999999981 L 400.0000000000011 80 L 239.99999999999955 560.0000000000002 L 399.99999999998903 400 L 560.000000000003 560.0000000000015 L 399.99999999999767 80 L 240.00000000000642 559.9999999999968 L 399.9999999999969 400 L 560.0000000000008 559.9999999999958 L 400.0000000000033 80 L 239.9999999999997 559.9999999999978 L 400.0000000000047 400 L 560.0000000000032 560.0000000000039 L 399.99999999999983 80 L 239.99999999999747 560.0000000000035 L 399.9999999999944 400 L 560.0000000000009 559.9999999999982 L 399.9999999999964 80 L 240.00000000000438 560.0000000000001 L 400.0000000000022 400 L 560.0000000000033 560.0000000000061 L 400.00000000000205 80 L 239.99999999999764 560.0000000000011 L 399.99999999999187 400 L 560.0000000000011 560.0000000000006 L 399.9999999999986 80 L 240.00000000000455 559.9999999999977 L 399.9999999999997 400 L 559.9999999999989 559.9999999999949 L 399.9999999999951 80 L 239.9999999999978 559.9999999999989 L 399.9999999999893 400 L 560.0000000000013 560.000000000003 L 400.0000000000008 80 L 240.0000000000047 559.9999999999953 L 399.99999999999716 400 L 559.9999999999991 559.9999999999973 L 399.9999999999973 80 L 240.0000000000025 560.000000000001 L 400.000000000005 400 L 560.0000000000059 560.0000000000007 L 400.00000000000296 80 L 239.99999999999577 560.000000000002 L 400.00000000001285 400 L 560.0000000000083 560.0000000000086 L 399.99999999999955 80 L 240.00000000000267 559.9999999999986 L 400.0000000000025 400 L 559.999999999997 559.999999999994 L 399.9999999999961 80 L 240.00000000000958 559.9999999999952 L 399.99999999999216 400 L 559.9999999999993 560.0000000000019 L 400.0000000000017 80 L 239.99999999999372 560.0000000000055 L 399.9999999999818 400 L 560.0000000000063 560.0000000000055 L 399.9999999999983 80 L 240.00000000000063 560.0000000000019 L 400.00000000000784 400 L 559.999999999995 559.9999999999907 L 399.9999999999948 80 L 240.00000000000298 559.999999999994 L 399.9999999999975 400 L 559.9999999999973 559.9999999999986 L 400.00000000000045 80 L 240.00000000000986 559.9999999999905 L 399.99999999998715 400 L 560.0000000000042 560.0000000000022 L 399.99999999999704 80 L 239.9999999999986 560.0000000000052 L 400.0000000000132 400 L 560.0000000000111 560.0000000000056 L 400.0000000000027 80 L 240.00000000000097 559.9999999999973 L 400.00000000000284 400 L 559.9999999999953 559.9999999999953 L 399.9999999999992 80 L 240.00000000000784 559.9999999999937 L 399.9999999999925 400 L 560.0000000000022 559.9999999999989 L 399.9999999999958 80 L 239.99999999999656 560.0000000000085 L 399.99999999998215 400 L 560.0000000000045 560.0000000000068 L 400.0000000000014 80 L 239.9999999999989 560.0000000000006 L 400.00000000000813 400 L 559.9999999999933 559.999999999992 L 399.99999999999795 80 L 240.0000000000058 559.999999999997 L 399.9999999999978 400 L 560.0000000000002 559.9999999999956 L 399.9999999999945 80 L 240.00000000000819 559.9999999999891 L 399.99999999998744 400 L 560.0000000000025 560.0000000000035 L 400.00000000000017 80 L 239.99999999999685 560.0000000000039 L 400.0000000000135 400 L 560.0000000000094 560.000000000007 L 399.9999999999967 80 L 240.00000000000375 560.0000000000005 L 400.0000000000031 400 L 559.9999999999935 559.9999999999968 L 400.00000000000233 80 L 240.0000000000061 559.9999999999924 L 399.9999999999928 400 L 560.0000000000005 560.0000000000002 L 399.9999999999989 80 L 239.99999999999483 560.0000000000072 L 399.99999999998244 400 L 560.0000000000074 560.0000000000036 L 399.99999999999545 80 L 240.00000000000173 560.0000000000036 L 400.00000000000847 400 L 560.0000000000098 560.0000000000116 L 400.0000000000011 80 L 240.00000000000406 559.9999999999957 L 399.9999999999981 400 L 559.9999999999984 559.9999999999969 L 399.99999999999767 80 L 240.00000000001094 559.9999999999923 L 399.9999999999878 400 L 560.0000000000053 560.0000000000003 L 399.9999999999942 80 L 239.9999999999951 560.0000000000025 L 400.0000000000138 400 L 560.0000000000076 560.0000000000084 L 399.99999999999983 80 L 240.00000000000202 559.999999999999 L 400.00000000000347 400 L 559.9999999999964 559.9999999999936 L 399.9999999999964 80 L 240.00000000000892 559.9999999999956 L 399.9999999999931 400 L 559.9999999999987 560.0000000000016 L 400.00000000000205 80 L 239.9999999999931 560.0000000000057 L 399.9999999999828 400 L 560.0000000000057 560.0000000000051 L 399.9999999999986 80 L 240 560.0000000000023 L 400.0000000000088 400 L 560.0000000000125 560.0000000000085 L 399.99999999999517 80 L 240.00000000000688 559.9999999999989 L 399.9999999999984 400 L 559.9999999999967 559.9999999999983 L 399.9999999999917 80 L 240.00000000000924 559.9999999999909 L 399.99999999998806 400 L 560.0000000000036 560.0000000000018 L 400.0000000000064 80 L 239.99999999999798 560.0000000000056 L 399.9999999999777 400 L 560.0000000000105 560.0000000000052 L 400.00000000000296 80 L 240.00000000000483 560.0000000000022 L 400.00000000000375 400 L 559.9999999999992 559.9999999999905 L 399.99999999999955 80 L 240.00000000001177 559.9999999999986 L 399.9999999999934 400 L 559.999999999997 560.0000000000031 L 399.9999999999961 80 L 239.9999999999914 560.0000000000043 L 399.99999999998306 400 L 560.0000000000039 560.0000000000065 L 399.9999999999926 80 L 239.99999999999827 560.0000000000009 L 400.0000000000091 400 L 560.0000000000108 560.00000000001 L 400.0000000000074 80 L 240.0000000000052 559.9999999999974 L 399.99999999999875 400 L 559.9999999999995 559.9999999999952 L 400.0000000000039 80 L 240.00000000001208 559.999999999994 L 399.9999999999884 400 L 560.0000000000064 559.9999999999986 L 400.00000000000045 80 L 240.0000000000008 560.0000000000086 L 399.99999999997806 400" stroke-opacity="1" stroke-linecap="round" stroke-miterlimit="10"/></g></svg>