<svg version="1.1" xmlns="http://www.w3.org/2000/svg" xmlns:xlink="http://www.w3.org/1999/xlink" width="800" height="800" viewBox="0 0 800 800"><defs/><g/><g transform="scale(1,1)"><g transform="scale(1,1)"><rect fill="rgb(0,0,0)" stroke="none" x="0" y="0" width="800" height="800" fill-opacity="1"/></g><path fill="none" stroke="rgb(255,255,255)" paint-order="fill stroke markers" d=" M 400 400 L 480 698.5640646055102 L 538.5640646055098 320.0000000000002 L 559.9999999999999 559.9999999999998 L 538.5640646055099 160.00000000000048 L 480.0000000000002 421.43593539448983 L 399.9999999999999 80 L 319.99999999999864 421.4359353944902 L 261.4359353944893 159.99999999999903 L 239.99999999999835 560.0000000000016 L 261.43593539448943 319.99999999999994 L 320.00000000000057 698.5640646055092 L 400.00000000000125 400 L 480.0000000000003 698.5640646055108 L 538.5640646055124 319.9999999999987 L 560.0000000000003 560.0000000000005 L 538.5640646055092 160.00000000000193 L 479.99999999999903 421.4359353944896 L 400.0000000000003 80 L 320.0000000000059 421.4359353944881 L 261.4359353944891 159.99999999999991 L 239.99999999999807 560.0000000000025 L 261.4359353944834 319.99999999999665 L 320.0000000000006 698.5640646055097 L 400.0000000000025 400 L 480.00000000000097 698.5640646055126 L 538.5640646055065 320.000000000002 L 559.9999999999998 559.9999999999997 L 538.5640646055116 159.99999999999736 L 480.00000000000637 421.43593539449154 L 400.00000000000006 80 L 319.99999999999625 421.4359353944908 L 261.4359353944878 159.99999999999608 L 240.00000000000153 559.9999999999982 L 261.4359353944915 320.0000000000007 L 320.0000000000003 698.5640646055074 L 400.00000000001285 400 L 479.9999999999994 698.5640646055103 L 538.5640646055008 320.0000000000058 L 559.9999999999942 559.999999999995 L 538.5640646055086 160.0000000000002 L 480.00000000001376 421.43593539449313 L 399.99999999999875 80 L 320.00000000000364 421.43593539448915 L 261.4359353944849 159.99999999999332 L 239.999999999997 560.000000000004 L 261.4359353944852 319.9999999999979 L 320.00000000000205 698.5640646055058 L 400.000000000005 400 L 480.0000000000012 698.5640646055119 L 538.5640646054947 320.00000000000864 L 559.9999999999987 559.9999999999982 L 538.5640646055074 160.000000000004 L 479.9999999999871 421.43593539448625 L 399.99999999999966 80 L 320.0000000000109 421.43593539448693 L 261.4359353944927 160.00000000000523 L 240.00000000000048 559.9999999999995 L 261.4359353944796 319.9999999999941 L 319.99999999999926 698.5640646055126 L 399.99999999999716 400 L 480.00000000000085 698.5640646055142 L 538.5640646055163 319.99999999999665 L 560.0000000000023 560.0000000000026 L 538.5640646055061 160.00000000000782 L 479.9999999999943 421.43593539448847 L 400.0000000000006 80 L 320.0000000000182 421.4359353944848 L 261.4359353944914 160.00000000000142 L 240.00000000000392 559.9999999999952 L 261.435935394474 319.9999999999903 L 319.9999999999989 698.5640646055103 L 400.0000000000257 400 L 480.00000000000045 698.5640646055164 L 538.5640646055106 320.00000000000045 L 559.9999999999875 559.9999999999889 L 538.5640646055049 160.0000000000116 L 480.0000000000016 421.4359353944906 L 400.0000000000016 80 L 320.0000000000254 421.43593539448256 L 261.43593539448676 159.9999999999996 L 239.99999999999145 560.0000000000114 L 261.43593539446715 319.99999999998846 L 320.0000000000028 698.5640646055094 L 400.0000000000179 400 L 480.0000000000044 698.5640646055174 L 538.5640646055039 320.00000000000233 L 559.9999999999932 559.9999999999909 L 538.5640646055002 160.00000000001347 L 480.00000000000915 421.4359353944917 L 399.99999999999795 80 L 320.00000000003297 421.43593539448153 L 261.43593539448545 159.99999999999577 L 239.9999999999949 560.0000000000068 L 261.4359353944615 319.99999999998465 L 320.00000000000244 698.5640646055072 L 400.00000000001006 400 L 480.000000000004 698.5640646055197 L 538.5640646054982 320.00000000000614 L 559.9999999999943 559.9999999999975 L 538.564064605499 160.00000000001725 L 480.0000000000161 421.435935394495 L 399.9999999999989 80 L 320.0000000000399 421.4359353944782 L 261.4359353944842 159.99999999999199 L 239.99999999999608 560.0000000000002 L 261.43593539451047 320.0000000000124 L 320.0000000000063 698.5640646055062 L 400.0000000000022 400 L 480.00000000000307 698.5640646055025 L 538.5640646054926 320.0000000000099 L 560.0000000000024 559.9999999999974 L 538.5640646055159 159.99999999998954 L 480.00000000002393 421.43593539449495 L 399.99999999999983 80 L 319.9999999999799 421.4359353944964 L 261.435935394483 159.99999999998823 L 240.00000000000404 560.0000000000005 L 261.4359353945048 320.0000000000085 L 320.00000000000597 698.564064605504 L 399.9999999999944 400 L 480.0000000000027 698.5640646055047 L 538.5640646054869 320.0000000000137 L 560.0000000000058 560.0000000000018 L 538.5640646055147 159.9999999999933 L 480.0000000000312 421.43593539449716 L 400.0000000000008 80 L 319.99999999998715 421.43593539449427 L 261.4359353944817 159.99999999998434 L 240.00000000000753 559.999999999996 L 261.43593539449915 320.0000000000048 L 320.0000000000056 698.5640646055017 L 399.9999999999865 400 L 480.00000000000233 698.5640646055069 L 538.5640646054812 320.0000000000175 L 560.0000000000093 560.0000000000061 L 538.5640646055134 159.9999999999972 L 480.0000000000384 421.4359353944993 L 400.0000000000017 80 L 319.99999999999443 421.43593539449205 L 261.4359353944805 159.9999999999806 L 240.00000000001097 559.9999999999916 L 261.4359353944935 320.00000000000097 L 320.0000000000053 698.5640646054997 L 400.00000000005144 400 L 480.00000000000193 698.564064605509 L 538.5640646054757 320.0000000000213 L 559.9999999999764 559.9999999999742 L 538.5640646055122 160.00000000000097 L 480.0000000000457 421.43593539450154 L 400.0000000000027 80 L 320.00000000000165 421.43593539448983 L 261.43593539447926 159.9999999999768 L 239.99999999997803 560.0000000000236 L 261.43593539448784 319.99999999999716 L 320.00000000000495 698.5640646054974 L 400.0000000000436 400 L 480.0000000000016 698.5640646055112 L 538.56406460547 320.0000000000251 L 559.9999999999798 559.9999999999786 L 538.5640646055041 160.00000000000077 L 480.0000000000529 421.4359353945037 L 399.9999999999945 80 L 320.0000000000089 421.4359353944877 L 261.43593539447113 159.99999999997692 L 239.9999999999815 560.0000000000192 L 261.43593539447994 319.99999999999727 L 320.00000000000455 698.5640646054951 L 400.00000000003575 400 L 480.00000000000125 698.5640646055135 L 538.564064605462 320.000000000025 L 559.9999999999832 559.999999999983 L 538.5640646055028 160.00000000000463 L 480.0000000000602 421.4359353945059 L 399.99999999999545 80 L 320.00000000001614 421.43593539448545 L 261.4359353944699 159.9999999999731 L 239.99999999998494 560.0000000000148 L 261.4359353944743 319.99999999999346 L 320.0000000000042 698.564064605493 L 400.0000000000279 400 L 480.0000000000009 698.5640646055157 L 538.5640646054565 320.00000000002876 L 559.9999999999867 559.9999999999874 L 538.5640646055016 160.00000000000844 L 480.0000000000675 421.43593539450814 L 399.9999999999964 80 L 320.0000000000234 421.4359353944833 L 261.43593539446863 159.99999999996933 L 239.9999999999884 560.0000000000105 L 261.43593539446863 319.99999999998965 L 320.00000000000387 698.5640646054908 L 400.00000000002007 400 L 480.00000000000057 698.5640646055178 L 538.5640646054508 320.00000000003257 L 559.9999999999901 559.9999999999918 L 538.5640646055003 160.0000000000122 L 480.0000000000753 421.435935394508 L 400.0000000000064 80 L 320.00000000003064 421.4359353944811 L 261.4359353944674 159.99999999996552 L 239.9999999999964 560.0000000000106 L 261.4359353944653 319.9999999999819 L 320.0000000000035 698.5640646054885 L 400.0000000000122 400 L 480.0000000000087 698.5640646055177 L 538.5640646054474 320.0000000000403 L 559.9999999999936 559.9999999999961 L 538.564064605499 160.00000000001606 L 480.00000000008254 421.43593539451024 L 400.0000000000074 80 L 320.0000000000379 421.43593539447886 L 261.4359353945025 160.00000000002473 L 239.99999999999986 560.0000000000061 L 261.4359353944551 319.999999999986 L 319.9999999999934 698.5640646055228 L 400.0000000000044 400 L 480.00000000000836 698.5640646055199 L 538.5640646055463 319.9999999999733 L 559.999999999997 560.0000000000006 L 538.5640646054978 160.00000000001978 L 479.99999999995407 421.4359353944761 L 399.9999999999901 80 L 320.00000000004513 421.4359353944767 L 261.43593539450126 160.00000000002092 L 240.0000000000033 560.0000000000018 L 261.4359353944495 319.9999999999822 L 319.99999999999307 698.5640646055206 L 399.9999999999966 400 L 480.00000000000796 698.5640646055222 L 538.5640646055407 319.99999999997704 L 560.0000000000005 560.000000000005 L 538.5640646054966 160.00000000002362 L 479.9999999999613 421.43593539447824 L 399.9999999999911 80 L 320.0000000000524 421.4359353944745 L 261.4359353945 160.0000000000171 L 240.00000000000674 559.9999999999974 L 261.43593539444385 319.9999999999784 L 319.9999999999927 698.5640646055184 L 399.99999999998875 400 L 480.0000000000076 698.5640646055243 L 538.5640646055351 319.99999999998084 L 560.0000000000039 560.0000000000093 L 538.5640646054953 160.00000000002743 L 479.9999999999685 421.43593539448045 L 399.999999999992 80 L 320.0000000000597 421.43593539447227 L 261.43593539449876 160.00000000001333 L 240.00000000001017 559.999999999993 L 261.43593539443816 319.9999999999746 L 319.9999999999923 698.5640646055163 L 399.9999999999809 400 L 480.0000000000073 698.5640646055265 L 538.5640646055294 319.99999999998465 L 560.0000000000074 560.0000000000136 L 538.5640646054941 160.0000000000312 L 479.9999999999758 421.4359353944826 L 399.99999999999295 80 L 320.0000000000669 421.4359353944701 L 261.4359353944975 160.00000000000952 L 240.0000000000136 559.9999999999886 L 261.4359353944325 319.9999999999708 L 319.999999999992 698.564064605514 L 399.99999999997306 400 L 480.00000000000693 698.5640646055288 L 538.5640646055238 319.9999999999884 L 560.0000000000199 560.000000000009 L 538.5640646054928 160.00000000003502 L 479.99999999998306 421.43593539448483 L 399.99999999999386 80 L 320.0000000000754 421.43593539447244 L 261.43593539449625 160.00000000000568 L 240.00000000001708 559.9999999999843 L 261.43593539442685 319.99999999996703 L 320.00000000000864 698.5640646055163 L 399.9999999999652 400 L 480.0000000000066 698.5640646055309 L 538.5640646055181 319.99999999999227 L 560.0000000000234 560.0000000000134 L 538.5640646054916 160.00000000003882 L 479.9999999999903 421.43593539448705 L 399.9999999999948 80 L 320.00000000008265 421.4359353944703 L 261.435935394495 160.0000000000019 L 240.00000000002052 559.9999999999799 L 261.4359353944212 319.99999999996317 L 320.000000000018 698.5640646054778 L 400.0000000001029 400 L 479.9999999999965 698.5640646054967 L 538.5640646055125 319.999999999996 L 560.0000000000268 560.0000000000177 L 538.5640646054903 160.00000000004263 L 480.00000000013335 421.4359353945256 L 399.9999999999958 80 L 319.9999999999541 421.43593539450444 L 261.43593539449375 159.9999999999981 L 240.00000000002396 559.9999999999754 L 261.43593539441554 319.9999999999594 L 320.0000000000177 698.5640646054756 L 400.00000000009504 400 L 479.99999999999613 698.564064605499 L 538.5640646055068 319.9999999999999 L 560.0000000000302 560.0000000000222 L 538.564064605489 160.00000000004644 L 480.0000000001406 421.4359353945278 L 399.9999999999967 80 L 319.99999999996135 421.4359353945022 L 261.4359353944925 159.99999999999432 L 240.00000000002743 559.9999999999711 L 261.43593539440997 319.9999999999556 L 320.0000000000173 698.5640646054734 L 400.0000000000872 400 L 479.9999999999958 698.5640646055011 L 538.5640646055012 320.00000000000364 L 560.0000000000337 560.0000000000266 L 538.5640646054878 160.00000000005022 L 480.0000000001478 421.43593539453 L 399.99999999999767 80 L 319.9999999999686 421.43593539450006 L 261.4359353944776 159.99999999999835 L 240.00000000003087 559.9999999999667 L 261.4359353944043 319.9999999999518 L 320.00000000001694 698.5640646054712 L 400.00000000007935 400 L 479.99999999999545 698.5640646055033 L 538.5640646054956 320.0000000000075 L 560.0000000000372 560.0000000000309 L 538.5640646054728 160.00000000004619 L 480.00000000015507 421.4359353945322 L 399.9999999999986 80 L 319.99999999997584 421.43593539449785 L 261.43593539447636 159.99999999999457 L 240.0000000000343 559.9999999999623 L 261.43593539439865 319.999999999948 L 320.0000000000166 698.564064605469 L 400.0000000000715 400 L 479.99999999999505 698.5640646055056 L 538.5640646054899 320.00000000001125 L 560.0000000000406 560.0000000000354 L 538.5640646054716 160.00000000004997 L 479.9999999998908 421.43593539446164 L 399.99999999999955 80 L 319.9999999999831 421.4359353944957 L 261.4359353944751 159.99999999999076 L 240.00000000003777 559.9999999999579 L 261.435935394393 319.9999999999442 L 319.99999999999676 698.5640646055396 L 400.00000000006366 400 L 479.9999999999947 698.5640646055077 L 538.5640646054842 320.00000000001506 L 560.000000000044 560.0000000000398 L 538.5640646054703 160.00000000005377 L 479.999999999898 421.4359353944638 L 400.00000000000045 80 L 319.9999999999904 421.43593539449347 L 261.43593539447386 159.99999999998695 L 240.0000000000412 559.9999999999535 L 261.43593539438734 319.9999999999404 L 319.9999999999964 698.5640646055374 L 400.0000000000558 400" stroke-opacity="1" stroke-linecap="round" stroke-miterlimit="10"/></g></svg>