<svg version="1.1" xmlns="http://www.w3.org/2000/svg" xmlns:xlink="http://www.w3.org/1999/xlink" width="800" height="800" viewBox="0 0 800 800"><defs/><g/><g transform="scale(1,1)"><g transform="scale(1,1)"><rect fill="rgb(0,0,0)" stroke="none" x="0" y="0" width="800" height="800" fill-opacity="1"/></g><path fill="none" stroke="rgb(255,255,255)" paint-order="fill stroke markers" d=" M 400 400 L 455.79821306259964 436.2357832497047 L 452.9391029825827 518.9031720763832 L 370.57604111970875 585.7755649481752 L 240.87649674107612 576.7245541228247 L 132.31478280390138 471.7260377734444 L 110.55728090000827 305.9543596332043 L 199.72066940774792 152.67562413888461 L 366.7341294691586 83.49638388259115 L 538.1665993962844 128.8327805149305 L 639.9999999999997 261.4359353944899 L 637.4804388229625 412.4458224218736 L 552.1690426072241 510.557280900008 L 446.6436405708839 521.5108379887179 L 386.1672732228164 465.0778628921272 L 400.0000000000007 399.9999999999993 L 465.077862892129 386.16727322281594 L 521.5108379887196 446.64364057088454 L 510.557280900009 552.1690426072253 L 412.4458224218738 637.4804388229637 L 261.4359353944898 640.0000000000007 L 128.83278051493494 538.1665993962821 L 83.49638388259098 366.73412946915846 L 152.67562413888314 199.720669407747 L 305.95435963320426 110.55728090000895 L 471.7260377734462 132.31478280389342 L 576.7245541228239 240.8764967410771 L 585.7755649481883 370.5760411197067 L 518.9031720763817 452.9391029825818 L 436.23578324971334 455.79821306261306 L 400 399.9999999999981 L 436.23578324969606 344.2017869374138 L 518.9031720763847 347.0608970174166 L 585.7755649481622 429.42395888028926 L 576.7245541228256 559.1235032589246 L 471.72603777344233 667.6852171960908 L 305.9543596332043 689.4427190999924 L 152.67562413888606 600.2793305922512 L 83.49638388259143 433.26587053084194 L 128.8327805149258 261.8334006037137 L 261.43593539449 160.0000000000014 L 412.4458224218732 162.51956117705092 L 510.5572809000246 247.83095739275345 L 521.5108379887319 353.3563594291108 L 465.0778628921254 413.8327267771833 L 399.99999999998516 399.99999999998516 L 386.1672732228229 334.922137107904 L 446.64364057087914 278.4891620112943 L 552.1690426072264 289.44271909999 L 637.4804388229771 387.5541775781253 L 639.9999999999858 538.5640646055015 L 538.166599396283 671.1672194850653 L 366.7341294691581 716.5036161174091 L 199.72066940774926 647.3243758611135 L 110.55728089999866 494.0456403667987 L 132.3147828038944 328.27396222655375 L 240.8764967410772 223.27544587717776 L 370.5760411197114 214.2244350518423 L 452.93910298259516 281.0968279235898 L 455.7982130626114 363.7642167502876 L 399.99999999999625 400 L 344.20178693738234 363.7642167502837 L 347.06089701742957 281.09682792364396 L 429.42395888028904 214.22443505183622 L 559.1235032589257 223.27544587717358 L 667.6852171961091 328.27396222655204 L 689.442719099982 494.0456403667927 L 600.2793305922519 647.3243758611136 L 433.26587053084154 716.5036161174085 L 261.8334006037197 671.167219485064 L 159.99999999998627 538.5640646055184 L 162.51956117702792 387.55417757812535 L 247.8309573927782 289.44271909999395 L 353.3563594291234 278.4891620113007 L 413.83272677719015 334.92213710784154 L 400.00000000000955 399.99999999999045 L 334.92213710786746 413.83272677718503 L 278.4891620112618 353.3563594291082 L 289.442719100006 247.83095739279642 L 387.55417757812677 162.51956117704592 L 538.5640646055105 159.99999999999724 L 671.167219485076 261.83340060371194 L 716.5036161174132 433.2658705308427 L 647.3243758611109 600.2793305922476 L 494.04564036680165 689.4427191000116 L 328.27396222654994 667.6852171961225 L 223.27544587715988 559.1235032589374 L 214.2244350518148 429.4239588802934 L 281.09682792362156 347.06089701741934 L 363.7642167503078 344.2017869374201 L 400 400.000000000042 L 363.7642167502634 455.79821306264915 L 281.0968279236729 452.9391029825579 L 214.22443505186394 370.5760411197145 L 223.27544587719035 240.87649674109016 L 328.2739622265577 132.31478280390724 L 494.0456403667956 110.55728090000645 L 647.3243758611177 199.72066940774673 L 716.5036161174044 366.73412946915806 L 671.1672194850929 538.1665993962965 L 538.5640646055276 640.0000000000283 L 387.5541775781247 637.4804388229952 L 289.442719099978 552.1690426072446 L 278.48916201127145 446.6436405708882 L 334.92213710787826 386.1672732228173 L 400.0000000000175 400.0000000000175 L 413.8327267771925 465.07786289216926 L 353.3563594291436 521.5108379886469 L 247.83095739281848 510.5572808999769 L 162.51956117706897 412.4458224218726 L 160.0000000000128 261.43593539449705 L 261.8334006037161 128.83278051493392 L 433.26587053083927 83.49638388259012 L 600.2793305922511 152.6756241388872 L 689.4427190999787 305.95435963320824 L 667.6852171961393 471.72603777345387 L 559.123503258952 576.7245541228581 L 429.4239588802969 585.7755649482128 L 347.0608970174068 518.9031720764074 L 344.2017869373919 436.2357832497107 L 400.00000000000756 400 L 455.7982130626207 436.23578324971845 L 452.9391029825994 518.9031720764197 L 370.5760411197206 585.7755649481088 L 240.8764967411048 576.7245541227917 L 132.31478280392406 471.7260377734384 L 110.55728090001634 305.95435963320836 L 199.72066940775014 152.67562413888425 L 366.7341294691592 83.49638388259189 L 538.1665993962804 128.83278051493733 L 639.9999999999799 261.43593539449955 L 637.4804388230182 412.44582242187755 L 552.1690426072666 510.55728090003913 L 446.6436405708997 521.5108379887579 L 386.16727322281093 465.0778628921549 L 399.9999999999931 400.0000000000069 L 465.0778628921362 386.16727322281434 L 521.5108379887417 446.64364057089244 L 510.5572809000311 552.1690426072531 L 412.4458224218703 637.480438822908 L 261.43593539450626 639.9999999999726 L 128.83278051494375 538.1665993962797 L 83.4963838825941 366.7341294691574 L 152.67562413888393 199.7206694077473 L 305.9543596332042 110.55728090001134 L 471.72603777343886 132.31478280391417 L 576.7245541228024 240.87649674109724 L 585.7755649482403 370.5760411196983 L 518.9031720764362 452.93910298260573 L 436.23578324972925 455.79821306263636 L 400 400.00000000002694 L 436.2357832496999 344.2017869374075 L 518.9031720763908 347.0608970174131 L 585.7755649481971 429.42395888029563 L 576.7245541228474 559.1235032589445 L 471.72603777343465 667.685217196059 L 305.95435963321233 689.4427190999738 L 152.67562413888754 600.2793305922482 L 83.49638388258842 433.265870530842 L 128.8327805149275 261.8334006037155 L 261.43593539449034 160.0000000000055 L 412.4458224218731 162.519561177056 L 510.557280899986 247.8309573928057 L 521.5108379886631 353.3563594291363 L 465.0778628920485 413.83272677716724 L 399.9999999999284 399.9999999999284 L 386.1672732227916 334.92213710775764 L 446.6436405708332 278.48916201141174 L 552.1690426071366 289.44271910005625 L 637.4804388228849 387.55417757813035 L 639.9999999999579 538.5640646054845 L 538.1665993962756 671.1672194850464 L 366.7341294691585 716.5036161174023 L 199.72066940774565 647.3243758611193 L 110.55728090000144 494.0456403667998 L 132.3147828038983 328.2739622265535 L 240.87649674108135 223.2754458771808 L 370.5760411197119 214.22443505184845 L 452.9391029825642 281.09682792365624 L 455.7982130625457 363.7642167503306 L 399.99999999991593 400 L 344.20178693731634 363.7642167502411 L 347.06089701737153 281.09682792351674 L 429.4239588802724 214.22443505194659 L 559.1235032588635 223.2754458772418 L 667.6852171960422 328.2739622265692 L 689.4427190999625 494.0456403667878 L 600.2793305922465 647.3243758611092 L 433.26587053084313 716.5036161174152 L 261.8334006037113 671.1672194850823 L 159.99999999998897 538.5640646055155 L 162.51956117703287 387.55417757812626 L 247.83095739278284 289.442719099998 L 353.3563594291247 278.4891620113076 L 413.8327267771741 334.92213710791845 L 399.99999999995276 400.00000000004724 L 334.92213710779066 413.8327267772015 L 278.48916201119346 353.3563594290814 L 289.4427191000723 247.83095739288623 L 387.554177578131 162.51956117713814 L 538.5640646054753 160.00000000005664 L 671.1672194850385 261.83340060373246 L 716.5036161173989 433.2658705308403 L 647.3243758611227 600.279330592256 L 494.0456403668038 689.4427191000085 L 328.2739622265497 667.6852171961185 L 223.27544587716406 559.1235032589345 L 214.22443505182093 429.42395888029296 L 281.0968279236281 347.0608970174216 L 363.7642167503121 344.2017869374261 L 400 400.00000000004957 L 363.76421675025955 455.79821306265546 L 281.0968279235449 452.93910298261426 L 214.22443505174152 370.5760411196956 L 223.27544587725856 240.87649674115244 L 328.27396222657296 132.31478280397454 L 494.04564036678374 110.55728090004743 L 647.3243758611059 199.72066940775514 L 716.5036161174187 366.73412946915573 L 671.1672194850903 538.1665993962966 L 538.5640646055247 640.0000000000257 L 387.55417757812563 637.4804388229902 L 289.44271909998196 552.16904260724 L 278.4891620112783 446.6436405708869 L 334.92213710788525 386.16727322282 L 400.00000000002285 400.00000000002285 L 413.8327267771937 465.07786289217654 L 353.35635942909295 521.5108379887772 L 247.8309573927186 510.55728090005005 L 162.51956117696673 412.4458224218786 L 160.00000000007122 261.4359353945339 L 261.8334006037328 128.83278051497325 L 433.26587053084364 83.49638388260507 L 600.2793305922612 152.6756241388769 L 689.4427191000196 305.9543596331963 L 667.6852171961353 471.7260377734541 L 559.1235032589504 576.7245541228527 L 429.4239588802978 585.7755649482066 L 347.06089701741075 518.9031720764016 L 344.2017869373984 436.23578324970725 L 400.00000000001506 400 L 455.7982130626267 436.2357832497227 L 452.93910298260175 518.9031720764262 L 370.57604111970045 585.775564948231 L 240.876496741038 576.7245541228694 L 132.31478280385085 471.72603777346086 L 110.55728090005596 305.9543596332244 L 199.7206694077603 152.6756241388946 L 366.7341294691591 83.49638388257739 L 538.1665993963009 128.83278051489992 L 640.0000000000402 261.4359353944661 L 637.4804388230132 412.445822421875 L 552.1690426072628 510.5572809000341 L 446.64364057089847 521.5108379887511 L 386.1672732228112 465.07786289214744 L 399.99999999999847 400.00000000000153 L 465.07786289214346 386.1672732228131 L 521.5108379887479 446.64364057089546 L 510.557280900034 552.1690426072586 L 412.44582242187795 637.4804388230102 L 261.43593539447033 640.0000000000402 L 128.83278051490294 538.1665993963038 L 83.4963838826086 366.7341294691575 L 152.67562413887364 199.72066940773715 L 305.9543596331923 110.55728089997035 L 471.7260377734579 132.31478280384783 L 576.7245541228694 240.87649674103372 L 585.7755649482341 370.57604111969744 L 518.9031720764306 452.93910298260175 L 436.2357832497242 455.79821306263085 L 400 400.00000000001944 L 436.2357832497042 344.2017869374015 L 518.9031720763973 347.0608970174108 L 585.7755649482035 429.4239588802948 L 576.7245541228526 559.1235032589461 L 471.72603777345705 667.6852171961323 L 305.95435963320057 689.4427191000196 L 152.67562413889786 600.279330592238 L 83.49638388257392 433.2658705308421 L 128.8327805148901 261.83340060369494 L 261.43593539445686 159.99999999994515 L 412.4458224218756 162.5195611769637 L 510.5572809000501 247.83095739271428 L 521.5108379887803 353.35635942908993 L 465.07786289218046 413.8327267771956 L 400.0000000000259 400.0000000000259 L 386.16727322282 334.92213710788957 L 446.64364057088386 278.4891620112814 L 552.1690426072357 289.442719099982 L 637.480438822987 387.5541775781227 L 640.0000000000256 538.5640646055205 L 538.166599396292 671.1672194850912 L 366.73412946915545 716.5036161174181 L 199.72066940773547 647.3243758611297 L 110.55728089996052 494.04564036681165 L 132.31478280383095 328.2739622265383 L 240.87649674101786 223.27544587711375 L 370.5760411196926 214.22443505173848 L 452.93910298261426 281.09682792354056 L 455.79821306265904 363.76421675025733 L 400.0000000000539 400 L 344.2017869374297 363.76421675031435 L 347.0608970174233 281.0968279236317 L 429.42395888028994 214.22443505182403 L 559.1235032589302 223.2754458771641 L 667.6852171961154 328.27396222654676 L 689.442719100007 494.04564036680364 L 600.2793305922555 647.3243758611225 L 433.26587053084006 716.5036161173994 L 261.8334006036908 671.1672194851197 L 159.99999999993057 538.5640646055523 L 162.5195611769406 387.55417757812376 L 247.8309573926915 289.44271909993387 L 353.3563594290818 278.4891620111891 L 413.8327267772025 334.9221371077865 L 400.0000000000503 399.9999999999497 L 334.9221371079226 413.83272677717315 L 278.48916201131067 353.35635942912774 L 289.44271909999804 247.83095739278716 L 387.5541775781233 162.519561177036 L 538.5640646055112 159.99999999998903 L 671.1672194850812 261.8334006037122 L 716.5036161174146 433.26587053084336 L 647.3243758611093 600.2793305922471 L 494.0456403667879 689.4427190999638 L 328.27396222653454 667.6852171961858 L 223.27544587724174 559.1235032588677 L 214.22443505171097 429.4239588803122 L 281.09682792375605 347.06089701747794 L 363.7642167502388 344.20178693731276 L 400 400.00000000020265 L 363.7642167503328 455.7982130625421 L 281.09682792341766 452.9391029826723 L 214.2244350518515 370.5760411197149 L 223.27544587732558 240.87649674121593 L 328.2739622265582 132.31478280389933 L 494.04564036677186 110.55728090008836 L 647.3243758611192 199.7206694077462 L 716.5036161174331 366.7341294691556 L 671.1672194850494 538.1665993962725 L 538.5640646055615 640.0000000000841 L 387.55417757813336 637.480438822888 L 289.44271909991784 552.1690426073314 L 278.489162011408 446.6436405708345 L 334.9221371077535 386.1672732227907 L 400.0000000001311 400.0000000001311 L 413.83272677716633 465.0778628920444 L 353.35635942904406 521.5108379889082 L 247.83095739280998 510.5572808999859 L 162.51956117725354 412.4458224218659 L 160.00000000000753 261.43593539449114 L 261.8334006037572 128.83278051500866 L 433.2658705308422 83.49638388258887 L 600.2793305922679 152.67562413886372 L 689.4427190999738 305.9543596332081 L 667.6852171962028 471.72603777346933 L 559.1235032588836 576.7245541227751 L 429.4239588803118 585.7755649483174 L 347.06089701746544 518.9031720762729 L 344.20178693728457 436.23578324977973 L 400.00000000016814 400" stroke-opacity="1" stroke-linecap="round" stroke-miterlimit="10"/></g></svg>