<svg version="1.1" xmlns="http://www.w3.org/2000/svg" xmlns:xlink="http://www.w3.org/1999/xlink" width="800" height="800" viewBox="0 0 800 800"><defs/><g/><g transform="scale(1,1)"><g transform="scale(1,1)"><rect fill="rgb(0,0,0)" stroke="none" x="0" y="0" width="800" height="800" fill-opacity="1"/></g><path fill="none" stroke="rgb(255,255,255)" paint-order="fill stroke markers" d=" M 400 400 L 214.56508686193348 605.9463352174009 L 428.9677774746675 675.6099923228064 L 400.0000000000023 400.00000000000165 L 128.92778531638976 457.61817791742624 L 261.43593539449114 639.9999999999982 L 400.00000000000176 400.00000000000534 L 146.8308563742792 287.2818350228329 L 146.83085637428536 512.7181649771647 L 400.00000000000017 399.99999999999943 L 261.43593539448716 159.99999999999648 L 128.92778531639175 342.3818220825741 L 399.99999999999085 400.00000000000665 L 428.96777747466876 124.39000767718483 L 214.56508686193487 194.05366478260206 L 399.999999999995 400 L 585.4349131380734 194.05366478259177 L 371.0322225253328 124.39000767719784 L 400.000000000001 400.00000000000074 L 671.0722146836032 342.3818220825744 L 538.5640646055048 160.00000000000705 L 400.00000000000233 400.00000000000716 L 653.1691436257182 512.7181649771666 L 653.1691436257084 287.2818350228376 L 400.000000000007 399.9999999999785 L 538.5640646055119 640.0000000000011 L 671.0722146835928 457.6181779174232 L 400.0000000000132 399.9999999999904 L 371.0322225253338 675.609992322813 L 585.4349131380527 605.946335217388 L 400.00000000001006 400 L 214.56508686192782 605.9463352174059 L 428.9677774746649 675.6099923227865 L 400.00000000000307 400.0000000000022 L 128.92778531638135 457.6181779174283 L 261.4359353944843 640.0000000000106 L 399.9999999999992 399.9999999999976 L 146.83085637426683 287.2818350228282 L 146.8308563742732 512.718164977172 L 400.00000000000273 399.99999999999164 L 261.43593539447903 159.99999999998593 L 128.9277853163871 342.38182208257183 L 400.00000000001216 399.99999999999113 L 428.9677774746704 124.39000767717175 L 214.5650868619324 194.05366478259748 L 399.99999999994856 400 L 585.4349131380817 194.05366478258148 L 371.0322225253316 124.39000767719295 L 399.99999999996345 399.99999999997345 L 671.0722146836338 342.38182208256717 L 538.5640646055067 160.00000000000227 L 399.999999999988 399.999999999963 L 653.1691436257464 512.7181649771805 L 653.1691436257136 287.2818350228367 L 400.00000000001006 399.99999999996896 L 538.5640646055266 640.0000000000289 L 671.0722146835988 457.6181779174197 L 400.0000000000213 399.9999999999845 L 371.0322225253254 675.6099923228435 L 585.4349131380582 605.9463352173899 L 400.00000000002007 400 L 214.56508686190887 605.9463352174312 L 428.9677774746642 675.6099923227916 L 400.0000000000112 400.00000000000813 L 128.92778531635037 457.61817791743357 L 261.4359353945024 639.9999999999848 L 400.00000000000233 400.00000000000716 L 146.83085637430358 287.28183502284753 L 146.83085637430136 512.7181649771582 L 399.9999999999996 400.0000000000012 L 261.4359353945008 160.0000000000212 L 128.927785316418 342.3818220825772 L 400.00000000000404 399.99999999999704 L 428.9677774746673 124.39000767721308 L 214.5650868619514 194.0536647826226 L 400.00000000001125 400 L 585.4349131380519 194.05366478261038 L 371.03222252533607 124.39000767722405 L 400.0000000000142 400.0000000000103 L 671.0722146835934 342.38182208257695 L 538.5640646054886 160.0000000000281 L 400.00000000000733 400.0000000000227 L 653.1691436257081 512.7181649771647 L 653.1691436256838 287.28183502284696 L 399.9999999999907 400.0000000000286 L 538.5640646055083 639.9999999999917 L 671.0722146835669 457.6181779174182 L 399.99999999997056 400.0000000000214 L 371.03222252533243 675.6099923228027 L 585.4349131380391 605.9463352173648 L 400.0000000001029 400 L 214.5650868619386 605.9463352174021 L 428.96777747466365 675.6099923227603 L 400.00000000007816 400.0000000000568 L 128.92778531639146 457.61817791742766 L 261.43593539451354 639.9999999999551 L 400.0000000000279 400.00000000008595 L 146.830856374277 287.2818350228301 L 146.8308563743311 512.7181649771479 L 399.999999999974 400.00000000008 L 261.4359353944827 159.99999999999537 L 128.92778531644814 342.3818220825864 L 399.9999999999371 400.0000000000457 L 428.96777747466786 124.39000767718159 L 214.5650868619762 194.05366478264244 L 399.9999999999285 400 L 585.4349131380768 194.05366478259054 L 371.03222252533664 124.39000767725554 L 399.9999999999472 399.99999999996163 L 671.0722146836235 342.3818220825678 L 538.5640646054774 160.00000000005784 L 399.99999999998175 399.9999999999439 L 653.1691436257411 512.7181649771678 L 653.1691436256572 287.2818350228644 L 400.0000000000163 399.99999999994986 L 538.5640646055263 640.0000000000175 L 671.0722146835352 457.61817791741674 L 400.0000000000376 399.9999999999727 L 371.03222252533186 675.6099923228342 L 585.4349131380202 605.9463352173398 L 400.0000000000402 400 L 214.56508686191378 605.946335217422 L 428.9677774746631 675.6099923227287 L 400.0000000000274 400.0000000000199 L 128.92778531635975 457.6181779174291 L 261.4359353945316 639.9999999999293 L 400.0000000000085 400.00000000002626 L 146.83085637425052 287.28183502281263 L 146.83085637435764 512.7181649771304 L 399.9999999999934 400.0000000000203 L 261.43593539446476 159.99999999996956 L 128.92778531647986 342.3818220825878 L 399.9999999999878 400.00000000000887 L 428.9677774746684 124.3900076771501 L 214.56508686189193 194.0536647825647 L 399.9999999999912 400 L 585.4349131380957 194.05366478256545 L 371.03222252532197 124.39000767714225 L 399.99999999999795 399.9999999999985 L 671.0722146836554 342.3818220825663 L 538.5640646055322 159.9999999999576 L 400.00000000000114 400.0000000000035 L 653.1691436257644 512.7181649771925 L 653.1691436257604 287.28183502281547 L 399.99999999999693 400.0000000000095 L 538.5640646055442 640.0000000000433 L 671.0722146836474 457.61817791743783 L 399.9999999999868 400.00000000000955 L 371.0322225253313 675.6099923228655 L 585.4349131380986 605.9463352174228 L 399.99999999997743 400 L 214.56508686189477 605.9463352174471 L 428.9677774746777 675.6099923228421 L 399.9999999999767 399.99999999998306 L 128.92778531632962 457.6181779174383 L 261.4359353944769 640.0000000000294 L 399.99999999998914 399.99999999996663 L 146.83085637422076 287.28183502280234 L 146.83085637425447 512.7181649771794 L 400.0000000000128 399.99999999996066 L 261.4359353944467 159.99999999994378 L 128.92778531636765 342.38182208256677 L 400.00000000003854 399.999999999972 L 428.967777474669 124.3900076771186 L 214.56508686192262 194.0536647825793 L 400.0000000000539 400 L 585.4349131381147 194.05366478254035 L 371.0322225253226 124.39000767717374 L 400.0000000000487 400.00000000003536 L 671.0722146836854 342.3818220825571 L 538.5640646055141 159.9999999999834 L 400.0000000000205 400.0000000000632 L 653.1691436257942 512.7181649772028 L 653.1691436257307 287.28183502282576 L 399.99999999997755 400.0000000000692 L 538.5640646055487 640.000000000077 L 671.0722146836173 457.6181779174287 L 399.9999999999361 400.00000000004644 L 371.03222252533067 675.6099923228971 L 585.4349131380679 605.9463352174081 L 400.0000000002058 400 L 214.56508686187584 605.9463352174722 L 428.9677774746771 675.6099923228105 L 400.0000000001614 400.00000000011727 L 128.9277853162995 457.61817791744744 L 261.4359353944949 640.0000000000036 L 400.0000000000597 400.0000000001838 L 146.83085637419097 287.28183502279205 L 146.83085637428425 512.7181649771691 L 399.99999999994225 400.0000000001778 L 261.4359353944423 159.9999999999101 L 128.92778531639772 342.3818220825759 L 399.9999999998538 400.0000000001062 L 428.9677774746696 124.39000767708717 L 214.56508686194158 194.05366478260444 L 399.9999999998256 400 L 585.4349131381337 194.05366478251523 L 371.0322225253388 124.39000767720353 L 399.999999999864 399.99999999990115 L 671.0722146837155 342.38182208254796 L 538.564064605496 160.0000000000092 L 399.99999999995 399.99999999984607 L 653.1691436258238 512.7181649772131 L 653.1691436257009 287.28183502283605 L 400.0000000000481 399.99999999985204 L 538.5640646055667 640.0000000001028 L 671.0722146835872 457.6181779174195 L 400.0000000001208 399.99999999991223 L 371.03222252531447 675.6099923229269 L 585.434913138049 605.946335217383 L 400.0000000001431 400 L 214.56508686185686 605.9463352174973 L 428.9677774746609 675.6099923227807 L 400.0000000001107 400.0000000000804 L 128.92778531626942 457.61817791745665 L 261.43593539451297 639.9999999999778 L 400.0000000000403 400.00000000012415 L 146.83085637416124 287.2818350227818 L 146.83085637431395 512.7181649771588 L 399.99999999996163 400.0000000001182 L 261.4359353944243 159.9999999998843 L 128.92778531642784 342.3818220825851 L 399.99999999990456 400.00000000006935 L 428.9677774746702 124.39000767705568 L 214.56508686194883 194.05366478264008 L 399.9999999998883 400 L 585.4349131381643 194.05366478250062 L 371.0322225253394 124.39000767723502 L 399.99999999991473 399.99999999993804 L 671.0722146837456 342.3818220825388 L 538.564064605478 160.000000000035 L 399.99999999996936 399.9999999999057 L 653.1691436258473 512.7181649772377 L 653.1691436256775 287.2818350228607 L 400.0000000000287 399.99999999991167 L 538.5640646055847 640.0000000001286 L 671.0722146835571 457.6181779174103 L 400.0000000000701 399.99999999994907 L 371.03222252532953 675.60999232296 L 585.4349131380417 605.9463352173474 L 400.0000000000803 400 L 214.5650868618262 605.946335217512 L 428.9677774746603 675.6099923227492 L 400.0000000000599 400.00000000004354 L 128.9277853162393 457.6181779174658 L 261.435935394531 639.999999999952 L 400.000000000021 400.00000000006446 L 146.83085637413788 287.28183502275715 L 146.83085637433734 512.7181649771342 L 399.999999999981 400.0000000000585 L 261.4359353944062 159.99999999985852 L 128.92778531645797 342.3818220825943 L 399.9999999999553 400.00000000003246 L 428.96777747467075 124.39000767702424 L 214.5650868619912 194.05366478264415 L 399.999999999951 400 L 585.4349131381833 194.0536647824755 L 371.03222252534 124.39000767726651 L 399.99999999996544 399.9999999999749 L 671.0722146837757 342.3818220825296 L 538.5640646054601 160.00000000006082 L 399.99999999998875 399.9999999999653 L 653.169143625877 512.718164977248 L 653.1691436256478 287.28183502287095 L 400.0000000000093 399.9999999999713 L 538.5640646054572 639.9999999999023 L 671.0722146835269 457.6181779174011 L 400.0000000000193 399.99999999998596 L 371.0322225253594 675.609992322702 L 585.4349131379993 605.9463352173433 L 400.0000000000176 400 L 214.56508686200198 605.9463352173208 L 428.9677774746597 675.6099923227177 L 400.00000000000915 400.00000000000665 L 128.92778531649384 457.61817791741447 L 261.435935394549 639.9999999999262 L 400.0000000000016 400.00000000000483 L 146.830856374374 287.2818350228652 L 146.83085637436704 512.7181649771239 L 400.0000000000004 399.99999999999886 L 261.4359353945338 160.00000000008475 L 128.9277853164881 342.38182208260343 L 400.000000000006 399.9999999999956 L 428.9677774746409 124.3900076772822 L 214.56508686201016 194.05366478266922 L 400.00000000001376 400 L 585.4349131380075 194.0536647826667 L 371.03222252534056 124.39000767729794 L 400.0000000000162 400.00000000001177 L 671.0722146835212 342.3818220825809 L 538.564064605442 160.00000000008663 L 400.00000000000813 400.000000000025 L 653.1691436256408 512.7181649771398 L 653.1691436256181 287.28183502288124 L 399.99999999998994 400.000000000031 L 538.5640646054752 639.9999999999281 L 671.0722146834969 457.61817791739196 L 399.99999999996857 400.00000000002285 L 371.0322225253588 675.6099923227335 L 585.4349131379803 605.9463352173182 L 399.9999999999549 400 L 214.56508686198302 605.9463352173459 L 428.96777747465916 675.6099923226863 L 399.99999999995845 399.9999999999698 L 128.92778531646377 457.6181779174236 L 261.435935394567 639.9999999999004 L 399.9999999999822 399.9999999999452 L 146.8308563743443 287.281835022855 L 146.83085637439683 512.7181649771136 L 400.0000000000197 399.99999999993923 L 261.4359353945157 160.00000000005892 L 128.92778531651817 342.38182208261264 L 400.0000000000568 399.99999999995873 L 428.9677774746728 124.390007677254 L 214.56508686202912 194.05366478269437 L 400.00000000007645 400 L 585.4349131380264 194.05366478264153 L 371.0322225253411 124.39000767732944 L 400.0000000000669 400.0000000000486 L 671.0722146835512 342.3818220825718 L 538.5640646054239 160.00000000011238 L 400.0000000000275 400.00000000008464 L 653.1691436256706 512.7181649771502 L 653.1691436255883 287.2818350228915 L 399.99999999997056 400.0000000000906 L 538.5640646054933 639.999999999954 L 671.0722146834668 457.6181779173828 L 399.99999999991786 400.0000000000597 L 371.0322225253269 675.6099923227616 L 585.4349131379614 605.9463352172932 L 399.99999999989217 400 L 214.56508686196403 605.946335217371 L 428.9677774746586 675.6099923226549 L 399.9999999999077 399.9999999999329 L 128.92778531643364 457.61817791743283 L 261.43593539455776 639.9999999998589 L 399.9999999999628 399.9999999998855 L 146.83085637431452 287.2818350228447 L 146.83085637442656 512.7181649771034 L 400.0000000000391 399.99999999987955 L 261.4359353944977 160.00000000003317 L 128.9277853165483 342.3818220826218 L 400.00000000010755 399.9999999999219 L 428.96777747467337 124.39000767722251 L 214.5650868620481 194.05366478271947 L 400.00000000013915 400 L 585.4349131380454 194.05366478261647 L 371.0322225253417 124.39000767736093 L 400.00000000011767 400.0000000000855 L 671.0722146835815 342.38182208256256 L 538.5640646054333 160.00000000015393 L 400.0000000000469 400.00000000014427 L 653.1691436257004 512.7181649771604 L 653.1691436255586 287.2818350229018 L 399.99999999995117 400.00000000015024 L 538.5640646055114 639.9999999999798 L 671.0722146834366 457.6181779173736 L 400.000000000338 399.99999999975444 L 371.03222252532635 675.6099923227932 L 585.4349131379424 605.9463352172679 L 400.00000000041155 400" stroke-opacity="1" stroke-linecap="round" stroke-miterlimit="10"/></g></svg>