<svg version="1.1" xmlns="http://www.w3.org/2000/svg" xmlns:xlink="http://www.w3.org/1999/xlink" width="800" height="800" viewBox="0 0 800 800"><defs/><g/><g transform="scale(1,1)"><g transform="scale(1,1)"><rect fill="rgb(0,0,0)" stroke="none" x="0" y="0" width="800" height="800" fill-opacity="1"/></g><path fill="none" stroke="rgb(255,255,255)" paint-order="fill stroke markers" d=" M 400 400 L 458.1234022404291 319.99999999999966 L 458.1234022404291 578.8854381999838 L 153.785317025979 319.99999999999983 L 646.2146829740207 221.11456180001645 L 400.0000000000001 720 L 153.78531702598025 221.1145618000174 L 646.2146829739983 320.000000000007 L 341.87659775957206 578.8854381999807 L 341.8765977595936 320.00000000003075 L 399.9999999999959 400 L 458.1234022404518 319.9999999999686 L 458.12340224043027 578.8854381999869 L 153.78531702595646 319.99999999999227 L 646.2146829740396 221.11456180000226 L 399.99999999999983 720 L 153.78531702598113 221.11456180001835 L 646.2146829739958 320.00000000000705 L 341.87659775959077 578.8854381999215 L 341.8765977595551 319.99999999997794 L 399.99999999999187 400 L 458.1234022404537 319.9999999999652 L 458.123402240449 578.8854382000461 L 153.78531702599477 320.00000000000495 L 646.2146829740223 221.11456180001457 L 400.00000000000125 720 L 153.78531702600083 221.11456180003165 L 646.2146829740344 319.9999999999952 L 341.8765977596108 578.8854381998626 L 341.8765977595977 320.0000000000373 L 400.00000000006054 400 L 458.1234022404969 319.99999999990627 L 458.1234022404326 578.885438199993 L 153.78531702603289 320.00000000001853 L 646.2146829740408 221.11456179999948 L 400.0000000000027 720 L 153.7853170260205 221.11456180004492 L 646.2146829739917 320.0000000000099 L 341.8765977595567 578.8854382000272 L 341.8765977596409 320.0000000000963 L 399.99999999998374 400 L 458.1234022403768 320.0000000000708 L 458.1234022404526 578.8854382000519 L 153.78531702599068 320.00000000000216 L 646.2146829740617 221.11456179998794 L 399.99999999999955 720 L 153.78531702596615 221.11456180000712 L 646.2146829739484 320.00000000002274 L 341.8765977595767 578.8854381999683 L 341.8765977596835 320.00000000015564 L 400.00000000019793 400 L 458.1234022404205 320.0000000000123 L 458.12340224047006 578.8854382001116 L 153.78531702611014 320.0000000000422 L 646.2146829740075 221.11456180002577 L 400.00000000000097 720 L 153.7853170260573 221.114561800075 L 646.2146829740678 319.9999999999827 L 341.87659775959673 578.8854381999096 L 341.8765977597272 320.0000000002142 L 400.0000000001211 400 L 458.12340224046307 319.99999999995293 L 458.12340224049007 578.8854382001705 L 153.7853170260668 320.0000000000293 L 646.2146829740258 221.11456180001073 L 400.00000000000233 720 L 153.78531702593025 221.11456179998433 L 646.2146829740245 319.9999999999956 L 341.87659775961674 578.8854381998507 L 341.8765977594433 319.9999999998265 L 400.0000000000443 400 L 458.12340224050683 319.9999999998944 L 458.1234022405075 578.8854382002302 L 153.78531702602461 320.0000000000129 L 646.2146829740468 221.11456179999922 L 399.9999999999992 720 L 153.7853170259512 221.1145617999959 L 646.2146829739822 320.000000000012 L 341.8765977596342 578.885438199791 L 341.876597759487 319.99999999988506 L 399.99999999996743 400 L 458.1234022405483 319.9999999998342 L 458.1234022403845 578.8854381998403 L 153.7853170259802 320.0000000000035 L 646.2146829740626 221.1145617999807 L 400.0000000000052 720 L 153.78531702597212 221.11456180000738 L 646.2146829739402 320.00000000002836 L 341.87659775965164 578.8854381997313 L 341.87659775953074 319.9999999999436 L 399.99999999989063 400 L 458.12340224059204 319.99999999977564 L 458.123402240402 578.8854381998999 L 153.78531702593804 319.99999999998715 L 646.2146829740836 221.11456179996912 L 400.00000000000205 720 L 153.785317025988 221.1145618000259 L 646.2146829738957 320.00000000003774 L 341.8765977596742 578.8854381996732 L 341.8765977598976 320.0000000004517 L 400.00000000039586 400 L 458.1234022403081 320.00000000016325 L 458.12340224041947 578.8854381999597 L 153.78531702589586 319.9999999999708 L 646.2146829741046 221.11456179995758 L 399.9999999999989 720 L 153.78531702586343 221.11456179993178 L 646.2146829741789 319.9999999999484 L 341.87659775954614 578.8854382000615 L 341.87659775961595 320.00000000006236 L 399.99999999973693 400 L 458.1234022406772 319.9999999996569 L 458.1234022405875 578.8854382004656 L 153.78531702617684 320.0000000000672 L 646.214682973975 221.11456180004478 L 400.00000000000483 720 L 153.78531702602484 221.114561800056 L 646.2146829738091 320.00000000006344 L 341.8765977597091 578.8854381995538 L 341.876597759332 319.9999999996747 L 400.0000000002422 400 L 458.12340224039326 320.00000000004457 L 458.1234022404594 578.8854382000774 L 153.78531702580696 319.999999999952 L 646.2146829741414 221.11456179992746 L 399.9999999999926 720 L 153.7853170259003 221.11456179996182 L 646.2146829740946 319.9999999999811 L 341.8765977595861 578.8854381999438 L 341.87659775970343 320.00000000017945 L 399.9999999995833 400 L 458.1234022407647 319.9999999995398 L 458.1234022403365 578.8854381996875 L 153.78531702609249 320.00000000003445 L 646.2146829740118 221.11456180001468 L 399.9999999999986 720 L 153.7853170260617 221.11456180008614 L 646.2146829737247 320.0000000000962 L 341.87659775946315 578.8854382003335 L 341.8765977594195 319.9999999997918 L 400.00000000008856 400 L 458.12340224048074 319.99999999992747 L 458.12340224049433 578.8854382001967 L 153.78531702572266 319.99999999991934 L 646.2146829741832 221.11456179990444 L 400.00000000000455 720 L 153.78531702594225 221.11456179998493 L 646.2146829740057 319.99999999999983 L 341.876597759621 578.8854381998244 L 341.8765977597863 320.00000000029985 L 399.99999999942963 400 L 458.1234022401968 320.00000000031514 L 458.1234022403714 578.8854381998069 L 153.7853170260036 320.0000000000157 L 646.2146829740536 221.1145617999916 L 400.0000000000105 720 L 153.78531702610363 221.11456180010921 L 646.2146829736405 320.0000000001289 L 341.87659775949805 578.8854382002141 L 341.8765977595069 319.9999999999089 L 399.99999999993486 400 L 458.1234022405682 319.99999999981037 L 458.1234022405394 578.8854382003128 L 153.7853170256383 319.99999999988654 L 646.214682973924 221.1145618000788 L 399.9999999999983 720 L 153.78531702597397 221.114561800022 L 646.2146829739214 320.00000000003257 L 341.8765977596661 578.8854381997083 L 341.8765977598738 320.00000000041695 L 399.999999999276 400 L 458.1234022402843 320.00000000019804 L 458.1234022404063 578.8854381999263 L 153.78531702591928 319.99999999998295 L 646.2146829740956 221.1145617999685 L 400.0000000000042 720 L 153.78531702614555 221.11456180013226 L 646.2146829742023 319.9999999999362 L 341.87659775953296 578.8854382000949 L 341.87659775958986 320.0000000000293 L 399.9999999997812 400 L 458.1234022406511 319.99999999969 L 458.1234022405743 578.8854382004322 L 153.78531702620023 320.0000000000793 L 646.214682973966 221.11456180005572 L 400.0000000000102 720 L 153.78531702601592 221.11456180004512 L 646.2146829738371 320.0000000000653 L 341.87659775970104 578.8854381995889 L 341.87659775996127 320.000000000534 L 400.0000000002865 400 L 458.1234022403718 320.00000000008095 L 458.12340224045136 578.8854382000424 L 153.78531702583496 319.9999999999502 L 646.2146829741273 221.11456179993147 L 399.99999999999795 720 L 153.7853170261773 221.11456180016933 L 646.214682974118 319.99999999996896 L 341.87659775986907 578.8854381990831 L 341.87659775967734 320.0000000001464 L 400.0000000007917 400 L 458.1234022407386 319.9999999995729 L 458.12340224032835 578.8854381996525 L 153.78531702546513 319.9999999998351 L 646.2146829740079 221.11456180003262 L 400.0000000000039 720 L 153.78531702605778 221.11456180006815 L 646.214682974399 319.9999999998726 L 341.8765977597359 578.8854381994696 L 341.8765977593934 319.9999999997587 L 399.9999999989687 400 L 458.12340224045465 319.99999999996055 L 458.1234022401952 578.885438199266 L 153.78531702574605 319.99999999993145 L 646.2146829738782 221.11456180011982 L 400.0000000000099 720 L 153.78531702592815 221.11456179998098 L 646.2146829733783 320.0000000001992 L 341.87659775961293 578.8854381998594 L 341.876597759114 319.99999999936773 L 399.9999999994739 400 L 458.12340224017527 320.0000000003515 L 458.1234022406543 578.8854382006676 L 153.78531702603158 320.00000000001387 L 646.2146829743307 221.11456179978407 L 399.99999999999767 720 L 153.78531702579852 221.11456179989378 L 646.2146829736639 320.0000000001168 L 341.87659775949 578.8854382002492 L 341.87659776013163 320.0000000007715 L 399.99999999997914 400 L 458.12340224119293 319.99999999894777 L 458.12340224053133 578.8854382002778 L 153.78531702630795 320.0000000001242 L 646.2146829742011 221.11456179987124 L 400.0000000000036 720 L 153.7853170262611 221.11456180021554 L 646.2146829739494 320.00000000003445 L 341.876597759367 578.8854382006391 L 341.8765977598477 320.0000000003838 L 400.0000000004844 400 L 458.12340224091355 319.9999999993387 L 458.1234022404084 578.885438199888 L 153.78531702529193 319.99999999978365 L 646.2146829740816 221.11456179997245 L 399.99999999999136 720 L 153.78531702612136 221.11456180014233 L 646.2146829742258 319.99999999992406 L 341.8765977598159 578.8854381992342 L 341.8765977595683 319.99999999999284 L 399.99999999866134 400 L 458.12340224062507 319.99999999972306 L 458.1234022402752 578.8854381995014 L 153.78531702557743 319.999999999866 L 646.2146829739621 221.11456180007366 L 400.0000000000155 720 L 153.78531702600185 221.11456180004117 L 646.2146829745112 319.99999999984175 L 341.87659775968274 578.8854381996207 L 341.87659775927983 319.99999999960846 L 399.9999999991666 400 L 458.1234022403457 320.000000000114 L 458.12340224072415 578.8854382009063 L 153.78531702585383 319.99999999997635 L 646.2146829738223 221.11456180014682 L 400.0000000000033 720 L 153.78531702588236 221.11456179994 L 646.2146829734952 320.00000000018224 L 341.8765977595699 578.8854382000138 L 341.87659776030205 320.00000000100897 L 399.99999999967184 400 L 458.1234022400663 320.000000000505 L 458.1234022406113 578.8854382005132 L 153.7853170261393 320.0000000000587 L 646.2146829742849 221.11456179982508 L 399.9999999999911 720 L 153.7853170257426 221.11456179986678 L 646.2146829737717 320.0000000000719 L 341.8765977594368 578.8854382004004 L 341.87659776002266 320.000000000618 L 400.00000000017707 400 L 458.12340224107936 319.99999999909795 L 458.1234022404782 578.8854382001267 L 153.78531702642482 320.0000000001411 L 646.2146829741654 221.1145617999263 L 400.00000000001523 720 L 153.78531702620515 221.1145618001885 L 646.2146829740572 319.99999999998954 L 341.8765977598857 578.8854381989954 L 341.8765977597342 320.0000000002336 L 400.00000000068235 400 L 458.1234022408 319.99999999948886 L 458.123402240345 578.8854381997402 L 153.78531702539968 319.9999999998285 L 646.2146829740255 221.1145617999995 L 400.00000000000296 720 L 153.78531702608572 221.11456180008733 L 646.2146829743426 319.99999999990723 L 341.8765977597729 578.8854381993885 L 341.8765977594548 319.99999999984266 L 399.99999999885927 400 L 458.1234022405206 319.9999999998799 L 458.1234022402322 578.8854381993469 L 153.78531702568515 319.99999999991087 L 646.2146829739061 221.11456180010063 L 399.99999999999073 720 L 153.7853170259459 221.11456180001412 L 646.2146829733174 320.00000000021976 L 341.87659775963976 578.8854381997751 L 341.8765977591754 319.9999999994517 L 399.99999999936455 400 L 458.1234022402321 320.0000000002642 L 458.1234022406811 578.8854382007519 L 153.78531702597064 319.99999999999324 L 646.2146829743688 221.11456179977893 L 400.0000000000149 720 L 153.78531702582637 221.11456179991296 L 646.214682973603 320.0000000001374 L 341.8765977595066 578.8854382001616 L 341.8765977601885 320.0000000008588 L 399.9999999998698 400 L 458.1234022399527 320.0000000006552 L 458.123402240548 578.8854382003653 L 153.78531702624707 320.00000000010357 L 646.2146829742289 221.11456179985214 L 400.0000000000027 720 L 153.78531702628902 221.11456180023467 L 646.2146829738793 320.00000000002706 L 341.8765977593938 578.8854382005547 L 341.8765977599091 320.0000000004678 L 400.000000000375 400 L 458.1234022409749 319.9999999992547 L 458.12340224043515 578.8854381999722 L 153.785317025231 319.9999999997631 L 646.2146829741093 221.1145617999533 L 399.99999999999045 720 L 153.7853170261492 221.11456180016148 L 646.2146829741648 319.9999999999447 L 341.87659775984275 578.8854381991498 L 341.8765977596297 320.00000000007685 L 399.99999999855197 400 L 458.12340224068646 319.9999999996391 L 458.123402240302 578.8854381995858 L 153.78531702551646 319.9999999998454 L 646.21468297399 221.11456180005447 L 400.00000000001455 720 L 153.7853170260297 221.1145618000603 L 646.2146829744504 319.9999999998623 L 341.87659775970957 578.8854381995363 L 341.8765977593412 319.9999999996925 L 399.9999999990572 400 L 458.1234022404071 320.00000000003007 L 458.123402240751 578.8854382009906 L 153.7853170257929 319.9999999999558 L 646.2146829738501 221.1145618001277 L 400.00000000000233 720 L 153.78531702591025 221.11456179995912 L 646.2146829734252 320.00000000017485 L 341.87659775959673 578.8854381999295 L 341.8765977603634 320.000000001093 L 399.9999999995625 400" stroke-opacity="1" stroke-linecap="round" stroke-miterlimit="10"/></g></svg>