<svg version="1.1" xmlns="http://www.w3.org/2000/svg" xmlns:xlink="http://www.w3.org/1999/xlink" width="800" height="800" viewBox="0 0 800 800"><defs/><g/><g transform="scale(1,1)"><g transform="scale(1,1)"><rect fill="rgb(0,0,0)" stroke="none" x="0" y="0" width="800" height="800" fill-opacity="1"/></g><path fill="none" stroke="rgb(255,255,255)" paint-order="fill stroke markers" d=" M 400 400 L 617.2469054993526 496.72455412282454 L 612.9488124431788 636.5036161174089 L 458.1234022404289 578.8854381999832 L 406.95446065169915 333.8327267771838 L 538.5640646055101 160 L 646.2146829740202 221.1145618000168 L 527.3115108976372 372.9391029825827 L 272.6884891023627 372.93910298258265 L 153.78531702597974 221.11456180001687 L 261.43593539448966 159.99999999999991 L 393.04553934830085 333.8327267771839 L 341.8765977595712 578.8854381999831 L 187.0511875568214 636.5036161174089 L 182.75309450064742 496.72455412282454 L 399.99999999999983 400 L 617.2469054993527 496.72455412282466 L 612.9488124431788 636.5036161174089 L 458.12340224042896 578.8854381999834 L 406.9544606516992 333.83272677718367 L 538.5640646055098 160.00000000000014 L 646.2146829740202 221.1145618000167 L 527.311510897637 372.93910298258277 L 272.68848910236335 372.93910298258294 L 153.78531702597974 221.114561800017 L 261.4359353944899 160 L 393.0455393483007 333.8327267771832 L 341.87659775957127 578.885438199983 L 187.0511875568212 636.5036161174089 L 182.75309450064708 496.724554122825 L 399.99999999999966 400 L 617.2469054993526 496.7245541228246 L 612.9488124431786 636.503616117409 L 458.1234022404291 578.8854381999835 L 406.95446065169915 333.83272677718384 L 538.5640646055105 159.99999999999991 L 646.2146829740203 221.11456180001662 L 527.3115108976372 372.93910298258265 L 272.6884891023625 372.93910298258254 L 153.78531702597968 221.11456180001704 L 261.4359353944891 159.99999999999974 L 393.0455393483009 333.8327267771842 L 341.8765977595714 578.8854381999829 L 187.05118755682176 636.5036161174091 L 182.75309450064753 496.7245541228244 L 399.99999999999955 400 L 617.246905499352 496.72455412282375 L 612.9488124431787 636.5036161174089 L 458.12340224042913 578.8854381999835 L 406.9544606516989 333.8327267771851 L 538.5640646055103 159.99999999999991 L 646.2146829740202 221.11456180001653 L 527.3115108976383 372.9391029825822 L 272.6884891023626 372.9391029825826 L 153.78531702597974 221.11456180001716 L 261.435935394489 159.99999999999972 L 393.04553934830085 333.832726777184 L 341.87659775957144 578.8854381999828 L 187.05118755682182 636.5036161174093 L 182.75309450064748 496.72455412282443 L 399.9999999999994 400 L 617.246905499352 496.7245541228237 L 612.9488124431787 636.5036161174089 L 458.1234022404292 578.8854381999836 L 406.9544606516993 333.83272677718304 L 538.5640646055102 159.99999999999994 L 646.2146829740202 221.11456180001645 L 527.3115108976365 372.939102982583 L 272.6884891023628 372.93910298258265 L 153.78531702597968 221.1145618000172 L 261.43593539449034 160.0000000000002 L 393.04553934830085 333.8327267771839 L 341.87659775957155 578.8854381999827 L 187.05118755682085 636.5036161174087 L 182.75309450064742 496.72455412282454 L 399.9999999999992 400 L 617.2469054993529 496.724554122825 L 612.9488124431798 636.5036161174082 L 458.1234022404293 578.8854381999837 L 406.9544606516993 333.8327267771832 L 538.5640646055087 160.0000000000005 L 646.2146829740202 221.11456180001633 L 527.3115108976366 372.93910298258294 L 272.6884891023648 372.9391029825836 L 153.7853170259797 221.11456180001733 L 261.43593539449023 160.00000000000014 L 393.04553934830034 333.8327267771815 L 341.8765977595716 578.8854381999826 L 187.05118755682096 636.5036161174087 L 182.75309450064628 496.724554122826 L 399.99999999999903 400 L 617.2469054993528 496.7245541228249 L 612.9488124431799 636.5036161174082 L 458.1234022404294 578.8854381999838 L 406.95446065169926 333.8327267771833 L 538.5640646055086 160.00000000000057 L 646.2146829740202 221.11456180001628 L 527.3115108976367 372.9391029825829 L 272.688489102365 372.9391029825837 L 153.7853170259797 221.1145618000174 L 261.4359353944901 160.0000000000001 L 393.0455393483003 333.8327267771814 L 341.87659775957167 578.8854381999824 L 187.05118755682105 636.5036161174088 L 182.7530945006462 496.72455412282613 L 399.9999999999989 400 L 617.2469054993528 496.7245541228248 L 612.9488124431799 636.5036161174082 L 458.12340224042947 578.8854381999839 L 406.95446065169926 333.8327267771835 L 538.5640646055085 160.0000000000006 L 646.2146829740202 221.11456180001616 L 527.3115108976369 372.9391029825828 L 272.6884891023651 372.93910298258373 L 153.78531702597968 221.11456180001753 L 261.43593539449 160.00000000000006 L 393.0455393483003 333.8327267771812 L 341.8765977595718 578.8854381999823 L 187.0511875568211 636.5036161174088 L 182.75309450064609 496.72455412282625 L 399.99999999999875 400 L 617.2469054993528 496.7245541228247 L 612.94881244318 636.5036161174082 L 458.1234022404295 578.885438199984 L 406.9544606516992 333.83272677718367 L 538.5640646055084 160.0000000000006 L 646.2146829740202 221.11456180001608 L 527.311510897637 372.93910298258277 L 272.68848910236136 372.939102982582 L 153.7853170259797 221.11456180001758 L 261.4359353944899 160.00000000000003 L 393.0455393483012 333.8327267771855 L 341.87659775957184 578.8854381999822 L 187.0511875568212 636.5036161174089 L 182.75309450064813 496.7245541228236 L 399.9999999999986 400 L 617.2469054993527 496.7245541228246 L 612.9488124431781 636.5036161174094 L 458.12340224042964 578.8854381999842 L 406.95446065169915 333.8327267771838 L 538.5640646055111 159.9999999999997 L 646.2146829740202 221.11456180001596 L 527.3115108976372 372.9391029825827 L 272.6884891023615 372.9391029825821 L 153.7853170259797 221.1145618000177 L 261.43593539448983 160.00000000000003 L 393.04553934830113 333.8327267771853 L 341.87659775957195 578.8854381999821 L 187.05118755682125 636.5036161174089 L 182.75309450064805 496.72455412282363 L 399.9999999999984 400 L 617.2469054993526 496.72455412282454 L 612.9488124431781 636.5036161174093 L 458.1234022404273 578.8854381999812 L 406.9544606516982 333.8327267771883 L 538.5640646055083 160.00000000000068 L 646.2146829740202 221.1145618000159 L 527.3115108976373 372.93910298258265 L 272.68848910236164 372.93910298258214 L 153.78531702597982 221.1145618000152 L 261.4359353944869 159.99999999999898 L 393.04553934830017 333.83272677718077 L 341.876597759572 578.885438199982 L 187.05118755682128 636.5036161174089 L 182.75309450064802 496.72455412282375 L 400.00000000000284 400 L 617.2469054993504 496.72455412282164 L 612.9488124431803 636.503616117408 L 458.1234022404298 578.8854381999844 L 406.9544606516991 333.8327267771841 L 538.564064605511 159.9999999999997 L 646.2146829740203 221.11456180001844 L 527.3115108976413 372.93910298258083 L 272.6884891023656 372.93910298258396 L 153.78531702597965 221.11456180001784 L 261.43593539448966 159.99999999999994 L 393.0455393483011 333.83272677718503 L 341.8765977595697 578.885438199985 L 187.05118755682335 636.5036161174102 L 182.75309450064583 496.7245541228266 L 399.9999999999981 400 L 617.2469054993525 496.7245541228243 L 612.9488124431783 636.5036161174091 L 458.1234022404275 578.8854381999814 L 406.9544606516981 333.8327267771886 L 538.5640646055081 160.00000000000074 L 646.2146829740202 221.11456180001574 L 527.3115108976376 372.93910298258254 L 272.6884891023619 372.93910298258226 L 153.7853170259798 221.11456180001537 L 261.4359353944867 159.9999999999989 L 393.0455393483001 333.8327267771805 L 341.8765977595722 578.8854381999818 L 187.05118755682142 636.503616117409 L 182.75309450064785 496.724554122824 L 400.0000000000025 400 L 617.2469054993503 496.7245541228214 L 612.9488124431804 636.503616117408 L 458.12340224043 578.8854381999846 L 406.95446065169904 333.8327267771844 L 538.5640646055108 159.99999999999977 L 646.2146829740203 221.11456180001824 L 527.3115108976416 372.93910298258066 L 272.6884891023659 372.9391029825841 L 153.78531702597968 221.114561800018 L 261.43593539448943 159.99999999999986 L 393.045539348301 333.8327267771847 L 341.8765977595699 578.8854381999847 L 187.0511875568235 636.5036161174103 L 182.7530945006457 496.7245541228268 L 399.9999999999978 400 L 617.2469054993522 496.72455412282414 L 612.9488124431784 636.5036161174091 L 458.12340224042765 578.8854381999815 L 406.95446065169807 333.8327267771889 L 538.5640646055078 160.00000000000082 L 646.2146829740202 221.11456180001554 L 527.3115108976378 372.93910298258237 L 272.68848910236215 372.93910298258237 L 153.7853170259798 221.11456180001554 L 261.4359353944865 159.99999999999886 L 393.04553934830005 333.83272677718014 L 341.87659775957235 578.8854381999815 L 187.05118755682162 636.5036161174091 L 182.75309450064773 496.72455412282414 L 400.0000000000022 400 L 617.2469054993501 496.72455412282125 L 612.9488124431805 636.5036161174079 L 458.1234022404301 578.8854381999847 L 406.954460651699 333.8327267771847 L 538.5640646055106 159.99999999999986 L 646.2146829740203 221.114561800018 L 527.3115108976418 372.93910298258055 L 272.68848910236613 372.93910298258425 L 153.78531702597968 221.11456180001824 L 261.4359353944892 159.99999999999977 L 393.04553934830096 333.8327267771844 L 341.87659775957 578.8854381999846 L 187.05118755682363 636.5036161174103 L 182.75309450064557 496.724554122827 L 399.9999999999975 400 L 617.2469054993521 496.724554122824 L 612.9488124431786 636.503616117409 L 458.1234022404278 578.8854381999818 L 406.954460651698 333.83272677718924 L 538.5640646055076 160.00000000000088 L 646.2146829740202 221.11456180001537 L 527.3115108976381 372.93910298258226 L 272.68848910236244 372.93910298258254 L 153.7853170259798 221.11456180001574 L 261.43593539448625 159.99999999999878 L 393.0455393483 333.83272677717986 L 341.8765977595725 578.8854381999814 L 187.0511875568217 636.5036161174091 L 182.75309450064756 496.7245541228243 L 400.0000000000019 400 L 617.2469054993542 496.7245541228266 L 612.9488124431807 636.5036161174078 L 458.1234022404303 578.885438199985 L 406.9544606516989 333.83272677718503 L 538.5640646055103 159.99999999999994 L 646.2146829740203 221.11456180001784 L 527.3115108976343 372.93910298258396 L 272.6884891023664 372.93910298258436 L 153.78531702597965 221.11456180001844 L 261.43593539448904 159.9999999999997 L 393.0455393483009 333.8327267771841 L 341.8765977595702 578.8854381999844 L 187.0511875568198 636.503616117408 L 182.75309450064543 496.7245541228272 L 399.99999999999716 400 L 617.246905499352 496.72455412282375 L 612.9488124431787 636.5036161174089 L 458.123402240428 578.885438199982 L 406.95446065169983 333.83272677718077 L 538.5640646055074 160.00000000000097 L 646.2146829740202 221.1145618000152 L 527.3115108976384 372.93910298258214 L 272.6884891023627 372.93910298258265 L 153.78531702597977 221.1145618000159 L 261.43593539449176 160.00000000000068 L 393.04553934829994 333.8327267771796 L 341.8765977595727 578.8854381999812 L 187.05118755682187 636.5036161174093 L 182.75309450064742 496.72455412282454 L 400.0000000000016 400 L 617.246905499354 496.7245541228264 L 612.9488124431807 636.5036161174078 L 458.12340224043044 578.8854381999852 L 406.95446065169887 333.8327267771853 L 538.5640646055101 160.00000000000003 L 646.2146829740203 221.1145618000177 L 527.3115108976347 372.93910298258385 L 272.6884891023667 372.9391029825845 L 153.78531702597965 221.11456180001855 L 261.43593539448887 159.9999999999997 L 393.04553934830085 333.8327267771838 L 341.87659775957036 578.8854381999842 L 187.05118755681994 636.5036161174081 L 182.75309450064523 496.7245541228274 L 399.9999999999969 400 L 617.2469054993519 496.7245541228236 L 612.9488124431788 636.5036161174089 L 458.12340224042816 578.8854381999822 L 406.9544606516998 333.83272677718105 L 538.5640646055073 160.00000000000105 L 646.2146829740204 221.11456180002014 L 527.3115108976309 372.93910298258555 L 272.6884891023707 372.9391029825863 L 153.78531702597948 221.11456180002122 L 261.4359353944859 159.99999999999864 L 393.0455393482999 333.8327267771793 L 341.87659775957286 578.885438199981 L 187.051187556822 636.5036161174094 L 182.75309450064725 496.7245541228247 L 400.00000000000125 400 L 617.2469054993539 496.72455412282625 L 612.9488124431768 636.50361611741 L 458.1234022404258 578.8854381999793 L 406.9544606517007 333.83272677717684 L 538.5640646055043 160.00000000000202 L 646.21468297402 221.11456180001235 L 527.3115108976426 372.9391029825802 L 272.688489102367 372.9391029825846 L 153.78531702597962 221.11456180001875 L 261.43593539448864 159.9999999999996 L 393.04553934830074 333.8327267771835 L 341.87659775957053 578.8854381999839 L 187.05118755682008 636.5036161174082 L 182.7530945006493 496.72455412282204 L 400.0000000000056 400 L 617.2469054993559 496.7245541228289 L 612.948812443183 636.5036161174064 L 458.1234022404331 578.8854381999886 L 406.95446065169784 333.83272677719015 L 538.564064605507 160.0000000000011 L 646.2146829740202 221.11456180001483 L 527.3115108976389 372.9391029825819 L 272.68848910236323 372.9391029825829 L 153.78531702597974 221.11456180001628 L 261.43593539449137 160.00000000000057 L 393.04553934830165 333.8327267771877 L 341.8765977595682 578.885438199987 L 187.05118755681815 636.5036161174071 L 182.75309450064293 496.72455412283045 L 399.99999999999187 400 L 617.2469054993495 496.72455412282045 L 612.948812443181 636.5036161174077 L 458.1234022404308 578.8854381999856 L 406.9544606516987 333.8327267771859 L 538.5640646055098 160.00000000000014 L 646.2146829740203 221.11456180001733 L 527.3115108976351 372.9391029825836 L 272.6884891023595 372.9391029825812 L 153.78531702597988 221.11456180001377 L 261.4359353944941 160.00000000000148 L 393.0455393482988 333.83272677717446 L 341.87659775957553 578.8854381999776 L 187.05118755682423 636.5036161174106 L 182.75309450064498 496.7245541228278 L 399.99999999999625 400" stroke-opacity="1" stroke-linecap="round" stroke-miterlimit="10"/></g></svg>