<svg version="1.1" xmlns="http://www.w3.org/2000/svg" xmlns:xlink="http://www.w3.org/1999/xlink" width="800" height="800" viewBox="0 0 800 800"><defs/><g/><g transform="scale(1,1)"><g transform="scale(1,1)"><rect fill="rgb(0,0,0)" stroke="none" x="0" y="0" width="800" height="800" fill-opacity="1"/></g><path fill="none" stroke="rgb(255,255,255)" paint-order="fill stroke markers" d=" M 400 400 L 312.9088202849034 496.72455412282466 L 375.14246829041264 163.4963838825909 L 646.2146829740204 578.8854381999831 L 88.70745413385174 466.16727322281605 L 538.5640646055098 160.00000000000014 L 458.1234022404288 578.8854381999826 L 339.22023016404654 372.93910298258317 L 339.2202301640449 427.0608970174177 L 458.123402240429 221.11456180001588 L 538.564064605511 640.0000000000002 L 88.70745413385163 333.8327267771838 L 646.2146829740198 221.11456180001684 L 375.14246829041247 636.5036161174078 L 312.9088202849042 303.27544587717694 L 399.9999999999981 400 L 487.09117971509784 303.27544587717415 L 424.8575317095876 636.5036161174103 L 153.78531702597888 221.11456180001682 L 711.2925458661477 333.832726777183 L 261.4359353944915 639.9999999999994 L 341.87659775956297 221.11456179999075 L 460.7797698359517 427.0608970174162 L 460.77976983592424 372.93910298259595 L 341.87659775957076 578.8854381999856 L 261.4359353944973 160.00000000001486 L 711.2925458661484 466.16727322281696 L 153.78531702597127 578.8854381999889 L 424.85753170958543 163.49638388259325 L 487.09117971511597 496.7245541228473 L 400.00000000000375 400 L 312.908820284923 496.7245541228022 L 375.1424682904128 163.49638388258836 L 646.2146829740121 578.8854381999774 L 88.7074541338522 466.1672732228163 L 538.5640646055177 159.99999999998587 L 458.12340224042833 578.8854381999795 L 339.2202301640173 372.9391029825703 L 339.2202301640417 427.06089701741956 L 458.12340224041975 221.11456180004063 L 538.5640646055134 640.000000000001 L 88.7074541338477 333.8327267771815 L 646.2146829740377 221.1145618000054 L 375.14246829040997 636.5036161174294 L 312.90882028490694 303.2754458771791 L 399.999999999958 400 L 487.09117971505543 303.27544587722076 L 424.85753170958594 636.5036161173886 L 153.78531702597746 221.11456180001682 L 711.2925458661437 333.83272677718304 L 261.4359353944749 640.0000000000297 L 341.8765977595622 221.11456179999425 L 460.77976983594823 427.060897017415 L 460.77976983599274 372.93910298256577 L 341.8765977595872 578.8854381999323 L 261.4359353944974 160.0000000000126 L 711.29254586615 466.1672732228118 L 153.78531702599088 578.8854381999756 L 424.85753170959464 163.4963838825478 L 487.09117971511466 496.72455412284387 L 400.00000000000756 400 L 312.9088202848772 496.724554122855 L 375.14246829041866 163.4963838826342 L 646.2146829740147 578.8854381999757 L 88.70745413385225 466.1672732228148 L 538.5640646054962 160.00000000001765 L 458.12340224044476 578.8854382000328 L 339.22023016402045 372.9391029825724 L 339.2202301640382 427.0608970174208 L 458.12340224043714 221.11456179998117 L 538.5640646054951 639.9999999999718 L 88.70745413385504 333.8327267771816 L 646.2146829740169 221.11456180001684 L 375.1424682904143 636.5036161173784 L 312.9088202848638 303.2754458771331 L 400.00000000002694 400 L 487.09117971510125 303.27544587716795 L 424.85753170959026 636.5036161174396 L 153.78531702599292 221.1145618000317 L 711.2925458661509 333.8327267771829 L 261.43593539449637 639.999999999998 L 341.8765977595821 221.11456180005285 L 460.77976983587973 427.06089701738483 L 460.7797698360609 372.93910298253473 L 341.87659775960367 578.885438199879 L 261.4359353945123 160.00000000004383 L 711.2925458661417 466.1672732228161 L 153.7853170259754 578.8854381999906 L 424.85753170958697 163.4963838825985 L 487.09117971506885 496.72455412279106 L 400.00000000008407 400 L 312.90882028483134 496.7245541229079 L 375.14246829042116 163.49638388268033 L 646.2146829739943 578.8854381999678 L 88.70745413384589 466.16727322281935 L 538.564064605518 159.99999999999037 L 458.12340224042737 578.8854381999734 L 339.2202301640893 372.93910298260175 L 339.2202301639701 427.06089701745185 L 458.12340224038684 221.11456180014733 L 538.5640646054802 639.9999999999405 L 88.70745413386146 333.83272677718617 L 646.2146829740324 221.11456180000192 L 375.1424682904118 636.5036161174246 L 312.9088202849124 303.2754458771835 L 399.99999999995043 400 L 487.09117971514985 303.2754458771176 L 424.8575317095776 636.5036161172966 L 153.78531702601353 221.1145618000397 L 711.2925458661573 333.8327267771784 L 261.43593539447465 640.0000000000252 L 341.8765977595631 221.11456180000033 L 460.77976983594243 427.06089701740996 L 460.77976983599973 372.9391029825633 L 341.8765977595499 578.8854382000503 L 261.4359353945272 160.00000000007506 L 711.2925458661334 466.16727322282037 L 153.78531702595484 578.8854381999986 L 424.85753170958947 163.49638388255235 L 487.09117971511193 496.72455412283705 L 400.00000000001506 400 L 312.9088202848717 496.7245541228594 L 375.1424682904033 163.49638388253283 L 646.2146829739838 578.8854381999458 L 88.70745413383759 466.1672732228151 L 538.5640646055328 159.99999999995916 L 458.1234022404464 578.8854382000259 L 339.2202301640282 372.93910298257316 L 339.2202301640312 427.06089701742326 L 458.1234022404406 221.11456179997586 L 538.5640646055381 640.0000000000354 L 88.70745413386976 333.8327267771819 L 646.214682974053 221.11456179999396 L 375.1424682904093 636.5036161174708 L 312.9088202848665 303.27544587714 L 400.00000000001944 400 L 487.0911797151067 303.27544587716363 L 424.85753170959543 636.5036161174442 L 153.7853170259512 221.11456180000877 L 711.2925458661656 333.83272677718264 L 261.4359353944597 640.0000000000565 L 341.8765977595441 221.11456179994784 L 460.7797698360028 427.06089701744025 L 460.7797698359378 372.93910298259016 L 341.87659775956894 578.8854381999978 L 261.4359353944693 159.99999999998028 L 711.2925458661567 466.16727322282213 L 153.78531702593935 578.8854382000135 L 424.85753170959197 163.49638388250622 L 487.091179715155 496.72455412288303 L 399.9999999999461 400 L 312.90882028491484 496.7245541228134 L 375.1424682904058 163.49638388257895 L 646.2146829740309 578.8854381999978 L 88.70745413386095 466.16727322281326 L 538.5640646055477 159.99999999992792 L 458.1234022404654 578.8854382000784 L 339.2202301639662 372.93910298254633 L 339.22023016409315 427.0608970173964 L 458.12340224042157 221.1145618000284 L 538.5640646055232 640.0000000000041 L 88.70745413384645 333.83272677718014 L 646.2146829739957 221.11456180003194 L 375.14246829042713 636.5036161173232 L 312.9088202850068 303.27544587728664 L 399.99999999979735 400 L 487.09117971524154 303.275445877012 L 424.8575317095726 636.5036161172043 L 153.7853170260496 221.11456180006257 L 711.2925458661721 333.8327267771781 L 261.4359353944448 640.0000000000878 L 341.8765977595251 221.1145617998953 L 460.7797698360647 427.06089701746714 L 460.7797698358759 372.939102982617 L 341.8765977595879 578.8854381999454 L 261.4359353944979 160.00000000000367 L 711.2925458661502 466.1672732228176 L 153.7853170259966 578.8854381999756 L 424.8575317095741 163.49638388265373 L 487.09117971501473 496.7245541227363 L 400.00000000016814 400 L 312.90882028478006 496.724554122965 L 375.14246829038797 163.49638388243145 L 646.2146829739427 578.8854381999299 L 88.70745413382474 466.1672732228242 L 538.5640646055626 159.9999999998967 L 458.1234022404742 578.8854382001342 L 339.2202301639044 372.93910298251944 L 339.22023016415505 427.06089701736954 L 458.1234022404026 221.1145618000809 L 538.5640646054947 639.9999999999807 L 88.70745413385288 333.8327267771847 L 646.2146829740112 221.11456180001693 L 375.14246829042463 636.5036161173693 L 312.90882028496367 303.27544587724066 L 399.99999999986636 400 L 487.0911797151984 303.275445877058 L 424.8575317095973 636.5036161175469 L 153.7853170260651 221.1145618000775 L 711.2925458661784 333.83272677717355 L 261.4359353944299 640.0000000001189 L 341.87659775951624 221.1145617998395 L 460.7797698361266 427.06089701749397 L 460.779769835814 372.9391029826439 L 341.8765977596069 578.8854381998929 L 261.4359353945128 160.0000000000349 L 711.2925458661439 466.16727322281304 L 153.7853170259811 578.8854381999905 L 424.8575317095901 163.49638388260894 L 487.0911797150579 496.72455412278237 L 400.00000000009913 400 L 312.90882028482315 496.724554122919 L 375.14246829040394 163.49638388247618 L 646.2146829740727 578.8854382000208 L 88.70745413381832 466.1672732228287 L 538.5640646055775 159.99999999986545 L 458.12340224049325 578.8854382001867 L 339.2202301638424 372.9391029824926 L 339.22023016421696 427.0608970173427 L 458.1234022403937 221.11456180013678 L 538.5640646054798 639.9999999999495 L 88.7074541338593 333.83272677718924 L 646.2146829740267 221.114561800002 L 375.1424682904221 636.5036161174155 L 312.90882028491507 303.2754458771996 L 399.99999999993537 400 L 487.09117971516076 303.27544587710895 L 424.8575317095948 636.5036161175008 L 153.7853170259351 221.11456179998675 L 711.2925458661254 333.8327267771817 L 261.435935394415 640.0000000001502 L 341.8765977594871 221.1145617997903 L 460.779769836187 427.06089701752427 L 460.77976983575365 372.93910298267417 L 341.8765977596158 578.885438199837 L 261.43593539452763 160.00000000006614 L 711.2925458661375 466.1672732228085 L 153.78531702596558 578.8854382000054 L 424.8575317095792 163.49638388256142 L 487.0911797151065 496.7245541228234 L 400.0000000000302 400 L 312.9088202848608 496.7245541228681 L 375.14246829040644 163.49638388252237 L 646.2146829740572 578.8854382000059 L 88.70745413387147 466.1672732228206 L 538.5640646054469 160.00000000008626 L 458.1234022405224 578.885438200236 L 339.22023016378205 372.9391029824623 L 339.2202301642773 427.0608970173124 L 458.12340224037473 221.11456180018922 L 538.5640646054649 639.9999999999183 L 88.70745413386561 333.8327267771938 L 646.2146829740421 221.11456179998706 L 375.1424682904196 636.5036161174617 L 312.90882028488295 303.27544587714374 L 400.0000000000043 400 L 487.0911797151177 303.2754458771549 L 424.8575317095923 636.5036161174546 L 153.78531702595058 221.1145618000017 L 711.2925458661317 333.8327267771771 L 261.43593539454565 639.9999999999293 L 341.8765977596136 221.11456180018567 L 460.77976983624893 427.0608970175511 L 460.7797698356917 372.939102982701 L 341.87659775963476 578.8854381997845 L 261.4359353945426 160.00000000009737 L 711.2925458661311 466.16727322280394 L 153.7853170259501 578.8854382000204 L 424.8575317095817 163.49638388251526 L 487.09117971513865 496.7245541228793 L 399.9999999999612 400 L 312.9088202849039 496.7245541228221 L 375.14246829040894 163.49638388256847 L 646.2146829740417 578.8854381999909 L 88.7074541338651 466.16727322282514 L 538.5640646054618 160.00000000005505 L 458.1234022403959 578.8854381998406 L 339.22023016372015 372.93910298243543 L 339.2202301643392 427.0608970172855 L 458.12340224035574 221.11456180024177 L 538.56406460545 639.999999999887 L 88.70745413387203 333.83272677719833 L 646.2146829740577 221.1145617999721 L 375.14246829041707 636.5036161175078 L 312.9088202848398 303.27544587709775 L 400.0000000000733 400 L 487.09117971507453 303.27544587720087 L 424.8575317095898 636.5036161174085 L 153.78531702596607 221.11456180001665 L 711.2925458661382 333.8327267771725 L 261.43593539453076 639.9999999999606 L 341.8765977596149 221.11456180012655 L 460.77976983579066 427.0608970173464 L 460.7797698356298 372.9391029827279 L 341.87659775965375 578.885438199732 L 261.43593539455753 160.0000000001286 L 711.2925458661248 466.1672732227994 L 153.7853170259346 578.8854382000354 L 424.8575317095842 163.49638388246908 L 487.09117971518174 496.72455412292527 L 399.99999999989217 400 L 312.908820284947 496.7245541227761 L 375.14246829041144 163.49638388261468 L 646.2146829740262 578.885438199976 L 88.70745413385862 466.16727322282975 L 538.5640646054767 160.00000000002382 L 458.1234022403945 578.8854381998997 L 339.22023016417836 372.9391029826402 L 339.220230163881 427.0608970174903 L 458.12340224033676 221.1145618002943 L 538.5640646054351 639.9999999998558 L 88.70745413387846 333.8327267772029 L 646.2146829740732 221.1145617999572 L 375.1424682903877 636.5036161175511 L 312.9088202847967 303.27544587705177 L 400.00000000014234 400 L 487.0911797150314 303.27544587724685 L 424.8575317095873 636.5036161173623 L 153.78531702598158 221.11456180003157 L 711.2925458661446 333.832726777168 L 261.4359353945159 639.9999999999918 L 341.87659775959594 221.114561800074 L 460.77976983585256 427.06089701737324 L 460.779769836088 372.93910298252314 L 341.8765977595272 578.8854382001273 L 261.4359353945723 160.0000000001598 L 711.2925458661778 466.1672732228075 L 153.7853170259191 578.8854382000503 L 424.85753170957287 163.49638388281312 L 487.0911797152249 496.72455412297126 L 400.0000000004053 400 L 312.90882028499016 496.7245541227301 L 375.14246829037324 163.49638388227345 L 646.2146829740107 578.885438199961 L 88.70745413379274 466.1672732228469 L 538.5640646055189 160.00000000000833 L 458.1234022405591 578.8854382004001 L 339.22023016411646 372.93910298261335 L 339.22023016446303 427.06089701723187 L 458.12340224046324 221.11456179989895 L 538.5640646054202 639.9999999998246 L 88.70745413382531 333.83272677719475 L 646.2146829740886 221.1145617999422 L 375.1424682904259 636.50361611721 L 312.9088202847536 303.2754458770057 L 399.9999999996292 400 L 487.0911797149883 303.27544587729284 L 424.8575317096255 636.5036161177035 L 153.78531702599705 221.11456180004652 L 711.2925458662105 333.8327267771508 L 261.4359353944737 640.0000000000073 L 341.87659775943143 221.11456179957364 L 460.7797698359145 427.0608970174001 L 460.779769835506 372.9391029827816 L 341.87659775954626 578.8854382000748 L 261.43593539458726 160.00000000019102 L 711.2925458661714 466.1672732228029 L 153.7853170258833 578.8854382000372 L 424.85753170957537 163.49638388276693 L 487.09117971526797 496.72455412301724 L 400.0000000003363 400" stroke-opacity="1" stroke-linecap="round" stroke-miterlimit="10"/></g></svg>