<svg version="1.1" xmlns="http://www.w3.org/2000/svg" xmlns:xlink="http://www.w3.org/1999/xlink" width="800" height="800" viewBox="0 0 800 800"><defs/><g/><g transform="scale(1,1)"><g transform="scale(1,1)"><rect fill="rgb(0,0,0)" stroke="none" x="0" y="0" width="800" height="800" fill-opacity="1"/></g><path fill="none" stroke="rgb(255,255,255)" paint-order="fill stroke markers" d=" M 400 400 L 214.56508686193388 194.05366478259944 L 371.0322225253323 675.6099923228076 L 399.99999999999795 400.0000000000015 L 671.0722146836079 457.6181779174258 L 261.4359353944892 159.99999999999923 L 400.00000000000153 399.9999999999952 L 146.83085637428343 512.7181649771658 L 653.1691436257191 512.718164977167 L 399.9999999999967 399.9999999999899 L 538.564064605509 160.00000000000145 L 128.92778531638498 457.61817791742726 L 399.99999999999187 399.9999999999941 L 428.9677774746679 675.6099923228071 L 585.4349131380703 194.05366478259486 L 400.00000000001256 400 L 214.56508686193365 194.0536647825989 L 371.0322225253318 675.6099923228128 L 400.0000000000172 399.9999999999875 L 671.0722146836094 457.61817791742624 L 261.4359353944875 159.99999999999704 L 399.9999999999942 400.0000000000179 L 146.83085637429426 512.7181649771608 L 653.1691436257386 512.718164977175 L 400.0000000000062 400.0000000000191 L 538.5640646055125 159.99999999999622 L 128.92778531639124 457.6181779174265 L 400.00000000001114 400.00000000000813 L 428.96777747466626 675.6099923227953 L 585.4349131380778 194.0536647825856 L 400.0000000000251 400 L 214.56508686192936 194.05366478259435 L 371.0322225253321 675.6099923228064 L 400.0000000000071 399.9999999999948 L 671.0722146835978 457.6181779174237 L 261.43593539448227 159.99999999998627 L 399.9999999999868 400.00000000004053 L 146.83085637427197 512.7181649771709 L 653.1691436257158 512.7181649771658 L 399.99999999999886 399.9999999999964 L 538.5640646055056 160.00000000000603 L 128.9277853163794 457.61817791742817 L 400.0000000000304 400.0000000000221 L 428.96777747466615 675.6099923227832 L 585.4349131380864 194.05366478257733 L 399.9999999999285 400 L 214.56508686196085 194.05366478263102 L 371.0322225253348 675.6099923227821 L 399.99999999996754 400.0000000000236 L 671.072214683622 457.61817791742766 L 261.4359353944944 160.0000000000075 L 400.00000000000193 399.99999999999403 L 146.83085637428334 512.718164977167 L 653.1691436257267 512.7181649771705 L 399.9999999999915 399.99999999997374 L 538.5640646054994 160.00000000001629 L 128.92778531636776 457.6181779174308 L 400.00000000004974 400.0000000000361 L 428.96777747466507 675.6099923227714 L 585.4349131380943 194.05366478256838 L 400.0000000000502 400 L 214.56508686192 194.05366478258583 L 371.0322225253337 675.609992322794 L 399.9999999999868 400.0000000000096 L 671.0722146836099 457.618177917427 L 261.4359353944883 159.99999999999721 L 399.9999999999946 400.0000000000167 L 146.83085637429343 512.7181649771605 L 653.1691436257377 512.7181649771752 L 399.9999999999841 399.9999999999511 L 538.5640646054951 160.0000000000275 L 128.9277853163561 457.6181779174334 L 400.000000000069 400.00000000005014 L 428.96777747466956 675.6099923228321 L 585.4349131380535 194.05366478261348 L 400.0000000000264 400 L 214.56508686192936 194.05366478259347 L 371.03222252533453 675.609992322806 L 400.0000000000061 399.99999999999557 L 671.0722146835983 457.61817791742436 L 261.43593539448057 159.999999999988 L 399.9999999999872 400.00000000003934 L 146.8308563743044 512.7181649771558 L 653.1691436257495 512.7181649771782 L 399.99999999997675 399.99999999992843 L 538.564064605489 160.0000000000377 L 128.92778531634497 457.61817791743795 L 400.0000000000883 400.0000000000641 L 428.96777747466086 675.609992322748 L 585.4349131381085 194.05366478254916 L 399.99999999985704 400 L 214.56508686198592 194.05366478265654 L 371.03222252532584 675.6099923228903 L 399.99999999990763 400.00000000006713 L 671.0722146836579 457.61817791743687 L 261.4359353945108 160.00000000004076 L 400.00000000002484 399.9999999999236 L 146.83085637424884 512.7181649771807 L 653.169143625694 512.7181649771533 L 400.0000000000143 400.00000000004417 L 538.5640646055193 159.99999999998496 L 128.92778531640448 457.61817791742544 L 399.9999999999898 399.9999999999926 L 428.96777747466734 675.6099923228085 L 585.4349131380677 194.0536647825943 L 399.9999999999787 400 L 214.5650868619451 194.05366478261138 L 371.0322225253323 675.6099923228298 L 400.0000000000446 399.9999999999676 L 671.0722146835751 457.61817791741913 L 261.4359353944684 159.99999999996746 L 399.9999999999725 400.0000000000847 L 146.8308563743263 512.7181649771463 L 653.1691436257713 512.7181649771876 L 399.99999999996203 399.99999999988313 L 538.5640646054769 160.00000000005826 L 128.92778531632172 457.6181779174432 L 400.0000000001268 400.00000000009214 L 428.96777747465865 675.6099923227241 L 585.4349131381243 194.05366478253126 L 400.0000000001004 400 L 214.5650868619043 194.05366478256624 L 371.0322225253388 675.6099923227694 L 399.99999999994617 400.0000000000391 L 671.0722146836346 457.61817791743164 L 261.43593539449864 160.00000000002024 L 400.00000000001006 399.99999999996896 L 146.83085637427078 512.7181649771712 L 653.1691436257142 512.7181649771663 L 399.9999999999996 399.99999999999886 L 538.5640646055072 160.0000000000055 L 128.92778531638044 457.6181779174268 L 400.00000000002836 400.00000000002063 L 428.9677774746651 675.6099923227847 L 585.4349131380864 194.05366478257903 L 399.99999999993105 400 L 214.56508686196082 194.05366478262926 L 371.0322225253262 675.6099923228531 L 400.0000000000832 399.9999999999396 L 671.0722146835518 457.6181779174139 L 261.43593539445965 159.99999999994506 L 399.99999999995777 400.00000000013 L 146.83085637434812 512.7181649771369 L 653.1691436257917 512.7181649772007 L 399.9999999999473 399.99999999983777 L 538.5640646054648 160.00000000007876 L 128.92778531643995 457.6181779174143 L 399.99999999992997 399.9999999999491 L 428.9677774746716 675.6099923228452 L 585.4349131380457 194.05366478262414 L 400.00000000005275 400 L 214.5650868620174 194.0536647826923 L 371.03222252533266 675.6099923227926 L 400.0000000002202 399.99999999984 L 671.0722146836122 457.6181779174226 L 261.43593539441383 159.99999999987375 L 399.99999999999534 400.00000000001427 L 146.83085637442557 512.7181649771026 L 653.1691436257362 512.7181649771758 L 400.0000000000748 400.0000000002303 L 538.5640646054917 160.00000000002396 L 128.92778531650032 457.6181779174056 L 400.00000000006696 400.00000000004866 L 428.96777747467814 675.6099923229057 L 585.4349131381022 194.05366478256113 L 400.0000000001744 400 L 214.56508686197367 194.05366478264983 L 371.03222252534306 675.6099923227325 L 400.00000000012176 399.99999999991155 L 671.0722146836708 457.61817791743897 L 261.4359353944475 159.9999999999245 L 400.00000000003297 399.99999999989853 L 146.83085637437162 512.7181649771311 L 653.1691436256822 512.7181649771474 L 399.9999999999326 399.99999999979246 L 538.5640646055253 159.9999999999732 L 128.9277853162743 457.61817791744977 L 399.9999999999685 399.9999999999771 L 428.96777747465813 675.6099923226762 L 585.4349131380584 194.05366478260365 L 399.999999999714 400 L 214.56508686193575 194.05366478260203 L 371.0322225253152 675.609992322961 L 400.0000000000233 399.99999999998306 L 671.0722146834466 457.61817791738713 L 261.43593539447437 159.99999999997922 L 400.00000000007054 399.9999999997828 L 146.83085637431452 512.7181649771524 L 653.169143625625 512.718164977126 L 399.99999999997016 399.9999999999082 L 538.5640646055522 159.9999999999185 L 128.92778531633473 457.6181779174411 L 399.99999999987006 399.9999999999056 L 428.9677774746607 675.6099923227373 L 585.4349131380205 194.0536647826514 L 399.9999999998357 400 L 214.56508686189204 194.05366478255957 L 371.03222252532566 675.609992322901 L 399.99999999992485 400.00000000005457 L 671.0722146835053 457.6181779174035 L 261.4359353945081 160.00000000003004 L 399.9999999999283 400.00000000022067 L 146.8308563742606 512.7181649771808 L 653.169143625837 512.7181649772159 L 400.0000000000078 400.00000000002393 L 538.5640646054404 160.00000000011977 L 128.92778531639345 457.6181779174247 L 400.0000000002425 400.0000000001762 L 428.9677774746711 675.6099923227973 L 585.4349131381715 194.05366478247757 L 399.9999999999574 400 L 214.56508686204893 194.0536647827281 L 371.0322225253282 675.6099923228401 L 399.9999999998264 400.00000000012614 L 671.0722146835656 457.61817791741214 L 261.43593539453497 160.00000000008475 L 399.9999999999659 400.00000000010493 L 146.83085637420342 512.7181649772022 L 653.16914362578 512.7181649771946 L 400.00000000004536 400.00000000013966 L 538.5640646054674 160.00000000006503 L 128.92778531645376 457.61817791741606 L 400.0000000001441 400.00000000010465 L 428.96777747467365 675.6099923228583 L 585.4349131381337 194.05366478252537 L 400.00000000007907 400 L 214.56508686200513 194.0536647826856 L 371.0322225253386 675.60999232278 L 400.0000000001989 399.9999999998555 L 671.0722146836245 457.6181779174285 L 261.43593539442315 159.9999999998835 L 400.0000000000035 399.9999999999892 L 146.8308563744154 512.7181649771122 L 653.169143625726 512.7181649771662 L 399.9999999999031 399.9999999997018 L 538.564064605501 160.00000000001424 L 128.92778531622787 457.6181779174602 L 400.00000000004565 400.00000000003314 L 428.96777747465364 675.6099923226288 L 585.4349131380899 194.05366478256786 L 400.00000000020077 400 L 214.56508686196727 194.05366478263784 L 371.03222252534124 675.6099923227191 L 400.00000000010044 399.999999999927 L 671.0722146836847 457.61817791743715 L 261.4359353944501 159.99999999993824 L 400.0000000000411 399.99999999987347 L 146.83085637435823 512.7181649771335 L 653.1691436256688 512.718164977145 L 399.9999999999407 399.99999999981753 L 538.5640646055278 159.99999999995953 L 128.92778531628824 457.61817791745153 L 399.9999999999472 399.99999999996163 L 428.96777747465626 675.6099923226898 L 585.434913138052 194.05366478261558 L 399.9999999997404 400 L 214.56508686192936 194.05366478259003 L 371.03222252532123 675.6099923229485 L 400.000000000002 399.9999999999986 L 671.0722146834588 457.61817791739304 L 261.43593539448375 159.999999999989 L 399.9999999998988 400.00000000031133 L 146.83085637430113 512.7181649771547 L 653.1691436258807 512.7181649772348 L 399.9999999999783 399.99999999993327 L 538.5640646055616 159.9999999999087 L 128.92778531634696 457.61817791743516 L 399.99999999984874 399.9999999998901 L 428.9677774746588 675.6099923227507 L 585.4349131380083 194.05366478265807 L 399.9999999998621 400 L 214.56508686188565 194.05366478254757 L 371.0322225253238 675.6099923228876 L 399.99999999990354 400.0000000000701 L 671.0722146835176 457.6181779174094 L 261.4359353945107 160.00000000004377 L 399.99999999993645 400.0000000001956 L 146.83085637424722 512.7181649771832 L 653.1691436258236 512.7181649772135 L 400.0000000000159 400.000000000049 L 538.5640646054499 160.00000000011 L 128.92778531640732 457.61817791742646 L 400.0000000002212 400.0000000001607 L 428.9677774746692 675.6099923228107 L 585.4349131381651 194.05366478248956 L 399.99999999998374 400 L 214.56508686204253 194.0536647827161 L 371.0322225253342 675.6099923228275 L 400.000000000276 399.99999999979946 L 671.0722146835778 457.61817791741805 L 261.4359353943989 159.99999999984252 L 399.999999999974 400.00000000007987 L 146.83085637419006 512.7181649772044 L 653.1691436257697 512.7181649771851 L 400.0000000000535 400.00000000016473 L 538.5640646054767 160.00000000005522 L 128.927785316466 457.61817791741015 L 400.0000000001227 400.0000000000892 L 428.96777747467183 675.6099923228717 L 585.4349131381214 194.05366478253205 L 400.00000000010544 400 L 214.56508686180405 194.05366478245736 L 371.03222252530634 675.6099923230561 L 400.0000000001775 399.999999999871 L 671.0722146836366 457.6181779174344 L 261.4359353945713 160.00000000014927 L 399.9999999998318 400.00000000051773 L 146.83085637439882 512.7181649771073 L 653.1691436257158 512.7181649771567 L 400.0000000000911 400.00000000028047 L 538.5640646053581 160.00000000025256 L 128.92778531624174 457.61817791746194 L 400.0000000000243 400.0000000000177 L 428.96777747468224 675.6099923229317 L 585.4349131382783 194.05366478236354 L 399.99999999964507 400 L 214.56508686196088 194.05366478262584 L 371.03222252533936 675.6099923227057 L 399.9999999996082 400.0000000002847 L 671.0722146834107 457.6181779173903 L 261.4359353944527 159.99999999995197 L 400.0000000000493 399.9999999998484 L 146.83085637408226 512.7181649772614 L 653.1691436259246 512.7181649772538 L 399.99999999994884 399.9999999998426 L 538.5640646055373 159.99999999994972 L 128.92778531658513 457.6181779173851 L 400.00000000039677 400.00000000028825 L 428.9677774746544 675.6099923227032 L 585.4349131380457 194.05366478262758 L 400.00000000034885 400 L 214.5650868621177 194.05366478279439 L 371.03222252532714 675.6099923229358 L 399.9999999999807 400.00000000001404 L 671.0722146837574 457.61817791745176 L 261.43593539434085 159.99999999975068 L 399.999999999907 400.00000000028626 L 146.83085637429102 512.7181649771643 L 653.1691436256015 512.718164977114 L 399.99999999980656 399.99999999940474 L 538.5640646054255 160.00000000015098 L 128.92778531635912 457.61817791742925 L 399.9999999998274 399.9999999998746 L 428.96777747462653 675.6099923224747 L 585.4349131381907 194.0536647824485 L 399.9999999998884 400 L 214.56508686187337 194.0536647825409 L 371.03222252536017 675.6099923225854 L 400.0000000003531 399.99999999974347 L 671.0722146835315 457.61817791740765 L 261.43593539452013 160.00000000005355 L 400.0000000001245 399.99999999961693 L 146.83085637449972 512.7181649770672 L 653.1691436258103 512.7181649772111 L 400.00000000002404 400.00000000007407 L 538.5640646056047 159.99999999984814 L 128.92778531613646 457.61817791748877 L 400.00000000019986 400.00000000014523 L 428.9677774746752 675.6099923228234 L 585.4349131379581 194.05366478271256 L 399.99999999942804 400" stroke-opacity="1" stroke-linecap="round" stroke-miterlimit="10"/></g></svg>